<mxfile host="app.diagrams.net" modified="2024-04-01T04:58:41.174Z" agent="Mozilla/5.0 (Windows NT 10.0; Win64; x64) AppleWebKit/537.36 (KHTML, like Gecko) Chrome/123.0.0.0 Safari/537.36" etag="nzFVJkSk2wXO1udPtiK7" version="23.1.5" type="github">
  <diagram id="prtHgNgQTEPvFCAcTncT" name="Page-1">
    <mxGraphModel dx="1050" dy="530" grid="1" gridSize="10" guides="1" tooltips="1" connect="1" arrows="1" fold="1" page="1" pageScale="1" pageWidth="827" pageHeight="1169" math="0" shadow="0">
      <root>
        <mxCell id="0" />
        <mxCell id="1" parent="0" />
        <mxCell id="62kK2Ir83u4KpnULeIx9-1" value="&lt;h1&gt;2.a. Design Goal:&lt;/h1&gt;&lt;div&gt;Freightliner has designed a new heavy duty electric box truck called the eM2, Sarah Rudder and Sean Bumgarner will apply HSE and MBSE to the driver interface tablet mount to create an optimal mounting solution based off requirements for the eM2&#39;s driver interface.&lt;/div&gt;" style="text;html=1;spacing=5;spacingTop=-20;whiteSpace=wrap;overflow=hidden;rounded=0;" vertex="1" parent="1">
          <mxGeometry x="50" y="50" width="710" height="120" as="geometry" />
        </mxCell>
        <mxCell id="62kK2Ir83u4KpnULeIx9-2" value="&lt;h1&gt;MBSE&amp;nbsp;&lt;/h1&gt;&lt;div&gt;The MBSE will actually be applied to the design. Here are the design steps to create a viable mount for the driver . Part of testing will include actual driver feedback from using the mounts. Test drivers were polled and feedback was documented to this point.&lt;/div&gt;" style="text;html=1;spacing=5;spacingTop=-20;whiteSpace=wrap;overflow=hidden;rounded=0;" vertex="1" parent="1">
          <mxGeometry x="50" y="190" width="710" height="120" as="geometry" />
        </mxCell>
        <mxCell id="62kK2Ir83u4KpnULeIx9-3" value="" style="shape=image;verticalLabelPosition=bottom;labelBackgroundColor=default;verticalAlign=top;aspect=fixed;imageAspect=0;image=data:image/png,iVBORw0KGgoAAAANSUhEUgAABCIAAAGkCAYAAADkAIQxAAAAAXNSR0IArs4c6QAAAARnQU1BAACxjwv8YQUAAAAJcEhZcwAADsMAAA7DAcdvqGQAALZ1SURBVHhe7f0PmCPVfSf8/ho7ibNrB7AzA7aXzQAjrYLdjjEssfrxy64xy0wrs7sdQ9/h3vWmeR+Pu1/IkqU7c73x5O3LsJ0Mfnln1cRew9Py+JrO/mPcQ9LXb0cyDn/WhHeEWQgOAqxtDXgS28DMxIaJvVknceh7fqdOSadKp6pOSVVqSf398BSjVv05p0ol1Tm/OufUSP3VNzYufMtfEAAAAAAAAABA2s5R/wIAAAAAAAAApA6BCAAAAAAAAADoGQQiAAAAAAAAAKBnug5EvHjPdXTeeedp02300MaGmtvuoduil+lEWtsFAAAAAAAAgOR0HIjY2HiR7rnuPLriwGV07LXX6PXXX5fTa8eI1h5WCxlcezcvdzddOzIi/9546DY677p76MUuAwj+7QIAAAAAAABA/+k4EPHSvTfTATpET7+26Kn8j1x7N919LYIBAAAAAAAAANCu7fGdq6ur6pXXxMSEesWtIR6i2fNvIDr2WmDQgVtM3LvrClr/5DGiG26g++gmsfgiiRXpruzT9NVbLpXdKW64T63AbjpGr999rXzJXT6uOPCkfE10FR16+kG65dIRq+2yjRfvoV1XHCB3C3TVIXr6wZvpUi1oErSvAAAAAAAAAJAOYyBiampK/dVy9uxZ9crpTuHEIbytIXRuwGCVbqKJexdlEIFx8METMOBt3ZX1BAlkEGJ1ovment5H6CWr7b54z2304C5nvpuXA5e1Ah3s3HPPVa8AAAAAAAAAoBcCAxF64MEvViBiohUcYFGBCKe1xV2UVS0g5DLNVhCv0eJHVCAiYrt+poAHAAAAAAAAAPRW6o/vvCx7iXpl6eE1uo+epANXnN98Esf5519BzV4ais129Sd6nO/pAwIAAAAAAAAAm6GzQMTFWbqKXqD1l9TfieNxH1pP4nAn20EwuVXFbeed53TvUNt57dhNai4AAAAAAAAAbJbOAhGX7KKJq56kA58NeU5np5IIcry0LrZwEx3TumG8tP6C/BcAAAAAAAAANk9HgYiRkUvp5geP0U333UDnXXcPvbixoeY4YzHc9lDrbytPrtO31MuRS2+hT97EXTNm6SG1XR4j4p7bvOlEawUz+AkaN/v7dgAAAAAAAABAz3U8RsTIyLW0+NrTdIgO0BXna+M53JWlWz+iFrLxkVvp0FX30Q28jdsekm9de/frdOwm9R5v8/wraDW7y3qQSQ5m3HuImuNMnH8z0b3omgEAAAAAAACw6Tp6agYAAAAAAAAAQCdSf2oGAAAAAAAAAIALgQgAAAAAAAAA6BkEIgAAAAAAAACgZxCIAAAAAAAAAICeQSACAAAAAAAAAHoGT82A2P7w4T9SrwAAYBD9k4/8L+oVDBJcfwEABhOuu+0QiIDY3ILQDR/dI/8FAIDBcez31lAgGlC4/gIADB5cd80QiIDYUBACABhcNgWihx9+WL0aPB/5yEfUq+GD6y8AwOBBIMIMgQiIDQUhAIDBZRuIuPLKK9Vfg+Opp55CIAIAAPoKAhFmGKwSAAAAYECdPn2aXn311dgTrwcAALBZEIgAAAAAGFBPP/00fexjH6N/8S/+hfXEy/N6AAAAmwWBCAAAAIABNT4+Tr/+679OIyMjMsDwn/7TfwqceD4vx8vzegAAAJsFgQgAAACAAeYGI/7Lf/kv9Mwzz9CFF17YNvH7PB9BCAAA6AcIRAAAAPSZP/uzP6N6vU6NRkNOAFE4uDA7O0uLi4tUqVTUuw7+m9/n+QhCAABAP0g9EPHQbefReedp020PqTn9Tea7B3l1js9t9NDGhnonfZzmdfe8KF+/eM91qeznqw9+mn7t136tbfr0g6+qJfrPs8u39nX+kuB+LrfeukzPqvf6x6v04KdvpeUEM8af6a23fpqCP9ZnaflWsUwCifKxjbOdqPPN9B0a9vMTHH/9139NL7zwAu3cuZMuueQSeumll+iHP/yhmgtpaSuviOm2h5xrs/9arV9H+4kpGIEgBAAA9KPUAhEbGy/SPdedRzfQMXr99deb07HsOr3Yw0p3JzYeus3J993XqneSwds977p7PPt/7d18XO6ma0dG1Du9dektX6Wns3elUqDauGIffeYzn9GmffTOtd/u00rwgHh2mW799IOiyt6BVx+k+9aIfunAZ+izn52i96m3N003+xLDyMjL9MyfmFN59cEyvfLud6u/+o/nO3Tgl4jE9yfJQA30px/96Ef0tre9jd785jfTm970JvrZn/1Z+su//EtxXd2gkydP0t/8zd/I5dy/v/e979H3v/99+Z7r29/+tgxoQDxXHXraU2a5+1rn2hx1rTZd3zcLBxv+1b/6V/Tv/t2/o//+3/+7/Jf/RhACAAD6SXotIl56kFafvIoO3ep9nve1t9xCl25SpdsGB1DuveuFtnwPs0tu/iRdduCzPWiV8T6a+uxv0p53P0WfR21qk7yT3nmherlFvOtd76Lvrj1oCH69Sn/yzHfV6wFw4S4qXEn01DP47gw7DjCY8CCDr732Gj3//PPyb+6ycebMGfrbv/1beuqpp+R7jFtP/PEf/zH9xE/8hHoHtpqrrrpKnkcc1OJ/+e//+T//J/3n//yf6Xd/93fbpj/6oz9SawIAAPRGeoGIS7J0GT1J699SfweQXQMMzSCZf56/C4HbNNKznOGOhHc719E9L4ZUuB/+LB247JN0y6XeYEm3eeH5599wH9GTB+iK889vrm9q3hmWltvS5LaHnH+dZbz7tPHiPXSdvn7EXZqRkWvp1kMv0F33viT/dtaPOE4du5B2ObUpVTF0m+OrJvJua4lXH6RPi7/dJummO+fctF2f/6xF03i9uXt4k31H2PJO0/pnZf7dZWTyWt5NrT+Ct+keC+df/3y5v0eeppGX/4AO8Tx3X59dDthei0zz0B/QyyNP05HmugHHnudoeZTb9R3XTvfdFbgvknn/XXE/Q7q8IINfbfX3Zx+kNdpDhcvV35qo/Wf+88/0RP7YebXw7gu3q1edfX6cb+/+OOvrb/H6zWVCzq/g/WvPG9jjQMJP//RPq7+I3vKWt8gWEWx0dJS++93v0p//+Z/LLhuXX345bd++nX784x/TD37wA7kMt5LgLh0cuIBkhHXFCLq+s6DyR+ta/hDdJufdRn/Y+FyK116S51Qmk6EvfelLtLy83Jw4iPX+979fLQUAANAbqQUinMrtVXTfDecHXrz5An3Fgcvo2GuvySaQrz19iLJB8157mg69cENbAODJA1fQzXRvaxkSBYHZh9VctZ3VCXra3c6xy+jAFbOBd/9fWn+BrsperP5yJJEXbtb52rGbuN2nk5eAbh+2ad13w81E9zrLHLvpSTpw873NYMNLD67TxNPa+r5jYnJJ9jJ6MipqlJTtF9K76RV6RavQvFJ+hi78zc82uwy8+iev0uXib6dZ+gFRXVyj3/ZVpj7/yh46oJqtf7bwKh35g5fVXDOuNP32M5e31vnEO2ntt4MryzbLf3etTHSTk88Dv/QuevqIqJCJ8uhNn+X3RL59rT9stvnU5+UG5PxPXPldWrvPCcK8b0q8t+8K2njXL8n1PzsljhRX/D//iuxu4WzPUKsWLtz1G7Jp/7s2rqB97rpK27HnPK69Uy7H25T78crn2yrjcfddZ9wXJWj/WdzP0LGdfuHyd9NTZW8w69lnnqJ3X/4LYq6Xzf7bnH+d5TXEs8v0+aeupMIub5OWuJ/f+y6/Uqz0SutYPPsMPS0qrHpLi9OvfpeuvDz8/LLZPz1vYIe7XTz55JNyfAjXjh07qFaryTva3F2DK42PPvoove9975N/s0svvVQOcMn+9E//VAYioDeCru825Y8X7lqjrLxe303XnpN+4Ogf/sN/SIcPH6Zzzz23+fddd90luwIBAAD0UqqDVfL4AxxcEFdeeTdAD0hsbDxEnz3wJN10bLHZ53Lk0lvolmtH1DyiQ09r80YupZvvPURX3bfmDSLcdIy+esul8mVrmbvkHYXmdu69udUd5CO30qGr7qO1gHr5t9afpMuyrQJcUnmxESetqw7d22y18ZFbxfwn18kNI1x6y93NeXL9T4oC0gsRY3NcnKWr1DL8OXz19a+2tQpJzIXvpHeql02X7yK9fnXhrintb9WKoll5epaeeerdtOemXWKO8r4p2ndF2HF+lh5cI986u8x3yiXL5a8sNPN54a4CXSGO35UFd532fNts8917bmpu83279tC7v/uq8W57i9bdQmzPV0+N5jn2Ko+/qY8hIfbjJpGPZisWJda+2wve/7ifYQvn78rvPkPNoSJEBbtsqNTb7b/N+dd5XnUjTx9ptjjgFiRXfkLPlxL38+NAoHYsOCBzxS/9Er3b9/1qNrwwnl+W++f7XkM07k5x5ZVXep6U8a1vfYve+973NltJcHeM888/X3y9XpF/s4svvpi+853vyPEi3vrWt9Lf/bt/V82BOPiGQqsFQ+cDSVuXPyZubV2v0772Krlcjn7nd36HJiYm6Ld+67dkixsAAIBeSzUQwZwLq3O3QF7g3Tv7D6/RfXQT7TENxSDnXUZaPMAhu3u8QOtODwLJ33rBWUaR23mSDlxxfrNgcf75V9CBJ9V8H24quf7CVeTZZFJ5sREjLT1Y4vDO5zsxzX3mJqNROA0tmJGqV1+hVvHZ8U7DwAV8x1WvhDXJ9dvHOth+Ycigg/Ku78v0B4fU9uR0iP7g5YACn+XyrWbyLr0C52O5zfZj4W094nHhL9DlovLH3S0CGh9E8qQn8viUaRwJGTzy5iPWvscQuP9xP0OP99HlV363OWjlq3/yDH33ysvbK/U2+29z/nWV1xbvgK8H6MKyv1tFB5+fPGe+S6/K6A4HHa6ky3eJ+W5wgrfx7svpF3gbQeeX5f6ZvtcQ7Wd+5meI+/a7/uqv/qoZWDh9+rQMOPzjf/yPiceL4L/ZT/7kT8q73H/yJ38iW0dAZ7yDVXYxkLRl+aP9Wp6sr3/968RddPzjhVx00UV06623NlvUAAAA9FrqgQjXyLV3y9YRcVoIJOOmZjcHfXJHwtZx64HsZdHjWvQzvgvD/U29zUFvUnNDvLROL1yVJV8oJR2nX6XvuhUdI6dfud7sm5vxN/H66mUcG6pbQqti50xarwCPuMvbSH6bF9Ku3/is7Hbxyue94wQMo26OH7euIDloJQ9SSbRnV4cH3fL8S+Wzli0byl2ONXGh01WFmy5wUOXdF9J2Fajh4MSrr7wiu6w4X8/g8yuN7weEe+ONN+i5556jD3zgA7ICyeNDcGsJ18/93M/JcSLe3cdPgtla7MsfaeHxIH7913+d3vGOd6h3AAAA+kPPAhGSvLOvKvrcFcB3F78paB5Xln0tBtrGNdBbFYSlEeIFfYWk8mIjRlqB5LKi8PNgqzkoj3sR6Vvr9ORl2R480eRZWv78U1oTfgN5x/lK+sRvtJbhylGTYYwJxv3aAwWsEyju8jbS2Kbrwl30G+qJJOVuaqlBeQxoBdBT3R4/dXf/mWUepDIgEGaz/wHLeM6/ND/rsM/B8vO78Bcul10xnuWIjAo68NgRTz3zoHySSFtLBv/5ler+wU/91E/R2bNnZasIDj7wozm5W8Y555xD11xzjXwSDOPK5S/+4i/K14y7bGCQyj7RYfkjSXwecBACj+0EAIB+lFogQj55wTfA4kv33iUq5k53DO6y8UkeZFEbuInXuechZ4yCtnn8WM2bucPlrd6mkvfd0HzSBrcGmL3hPrpKLRO0nXtuC36KxEf23OQJKCSVl6aQ7g+x0grVKvzwMb05qC+KRh+kM7WnZsgnKnyenrryExZ3TbVKjljvvjWtkqealuuDGPJAfkeeDjk+8tGHYh3PYHqv0oOiUmqsS8Vd3kZS29THjBD77e+S0VVz+KA83scDAuxq78rQrcjxLzRdH78L5bgVTz/9tHbH38dm/91lws6/pD5rDycfxi4lLtvPj7tqfHeNPi/evtyNyHBw4ZVn6JnvXkk8TqUUdH6lsn/g4j77HFBYX1+nF198kf7+3//7oYMJ8iCW/KQMnrJZd8jn/rHxrSP00Z/7KB351kbg66GgXd87KX8kee3loBWCEAAA0M/SaxHBrR9ExdztG8mT8zSI1kCMPNL0sZvuoxv4cVfcf/KKVXL7BvC8pw+90Jp3/hW0OvF0czBI11WHjlH2LneZG+g+bcBI1pYGbye7K/jO/0f20E2+7iNJ5cUdqEpuxxekcdmmFYQLP/fK8UHV+vxwjYiuGc6gWpfRJ2+2bbphxzPQnphu/e1XqfDZz3qekGAkKjk37aFm/3P5JIZPXKlmMm4u/pvySRr86Ee5DHfj+CXnLmEQflLDJ650+rs7eTpEz1wYUCEV4i5vo+ttqgEBeX05VoCoPHKT+ea2Lv/NrpvGcx5/c88r3jyK7f5G0qMO+vfFQvfH73K6YuMKwyCVLTb7/76p6PMvifPH+x06RGvv/ETk98fu8+OuGOIfvYuUyNvl9F1voCPk/Epi/yAYDyjIT8Xgxy3+g3/wD9S7ZhyI4NYQV199tWxNAZvAcH2PXf5IED/SFUEIAADoZyP1V9/YuPAtf6H+JFpdXaWpqSnZLLTf8bO778raV9JtbTx0G52/tifwEZsmaeWlF3hgS37sqG3e//DhP5L/3vDRPfLffsGPVCxfmEKFGQBgiBz7vTX6Jx/5X9RfZg8//LB8esegeeqpp+gjHzGNgj0c+vX6CwAAwWyuu1tRb8eIGBA8sOYxuiGw1cIwkc85X//kQAZQPJ5dps8bH8cIAAAAAAAA/QSBiADcpDJOi4hBdektXx3I/eTWD60m679Gt36e6BOfnQruOw8AAAAAAAB9YaADERws6Jc7+f2Ul62A+6frjwz8LIIQAAAAAAAAA2Ggx4iAzYE+qgAAg8t2jIhBhTEiAACgn2CMCDMEIiA2FIQAAAYXCkSDC9dfAIDBg+uuGQIREJtbEAIAgMGEAtFgwvUXAGAw4brbDoEIAAAAAAAAAOgZPDUDAAAAAAAAAHrGGIhAawgAAAAAAAAASIOxawYAAAAAAAAAQBraAhHnnnuuegUAAAAAAAAAkKy2QAQAAAAAAAAAQFowWCUAAAAAAAAA9AwCEQAAAAAAAADQM7Jrxpe++Bn1JyThF698n3pF9PWnnlWvNo+eH1c/5AsAAAB6w6Zskkb5xbRNf7nE9D7KKQAAw80TiJj/jX8t/+13t9xyC91zzz3yMaO9GlzzzJkz8t9t27bJf6O4yzPbddLUb/kBANgq3GsWgI20zhe9HMBMZYE0ygr+dP30dFBWgbRtRh0CYKvg79edd96p/orWFoj4zne+I1/3q4cffpi+/vWvN39EfvCDH6g56fnxj3+sXrV785vfrF55+dcJWs6Gvq1utsN4W91uAwAAor3tbW+Tj8R2r1l8feX3enHdgsHTi/MlqmzSTXkjbF1/uq4k0weIshl1CICtwv1+dR2I4Atfv9Iv0u6PSNr5/eEPf6heRXvrW9+qXrWvp8+LI6ntAABAb5kqlgBB0j5fgsozXK7otqzhrm9az5Sufzl9GZRzIA2bUYcA2Crc71ecQAQGq7TAF0TbiyJfSN0pLWluGwAAAIZTUFnGX65IIhCgb9MtR7nb9W8f5RoAgK0HgYgY9Aup/yJqo9MLrSk93hYu3AAAABBHVBmmk/IN07frlk9MZRV9+1HzAQBgeCEQ0QX3outOUbq9uJrW91/AAQAAANxKvj7p/OUX/XXS/GkDAAAgEJEg/aKe1sXctF1c4AEAAMAVVC4wBSRY0mWWTssqaZWdAACg/yAQkSK+oOpTUkzbCypcAAAAAOh6UV6wKau4y5iWBQCA4YZAxAAzXbQRjAAAANi6gir6fv6gQFpQVgEAAJNUAxEv3nMd3fbQhnz90G3X0T0vOq8hObjA9wc+188777y26bp7XlRLgI2HbuPjdhs9tIHfCoBec75/2nTbQ2pOb+H3NBmm8oFJLwIS3ZRVNjZepHuuE+fAdffQi31wbeDvSdi52PY94mmTvksA/SzsmhP1PYPhkGog4lvrRNmLnYvI+guXUfYSNQNicQsJ+qTjC7z/Im9aDlJ20zF6/fXXm9Nrrx2jyw5cIX5ch79ivfHQbbELiaZ1rr2bj93ddO3IiHoHANLmVvRuIO9v2LHsevP72cl33MR6Own9niaV70GklwHc16bygivNMsNf//Vf0+c//3n6O3/n76h3HFZllZcepFW6iq56cpUefEm9Z2nTPn/t/OVz96b7bkClCkCxueZ0Yiv/3g+q1AIRGxsP0dp9KvggLyJZutiZBTEEXaBNF+9u7jhA8kZGrqXF156mQ1fdRzfMPqzeBQDoM3yNfvIqOnTrR9QbjmtvuYUu7ZOgIH5Pk2UqLwQFKJJw//33UyaToT/8wz+MXVZ5+LMHiCbupU/e9CQd+OzgffZ87t566Cp6cvVBVJAA2ABcc6A3Eg9EbLx4D1133nl0/vk30H3ivxvOP5/Ov+IAPfnkAbpCvEZEOFlRwYg0CxYQbWTkUrr5kzcR3bfmuYvX1vTY0GzTvwx3c+IA323nebs5Od+51l1CpznbQ05TVn1d9d103mu/q+hNr5WGG7m+7SHVPNY3n9M7/4b7iNR33N0Xb3pi0qLUQeuYmuKFHauovAGAhUuydBk9SevfUn/7dPIdb303+TeL599Gd/1r83ZsmX5PO/mdYUG/d8Mg7nU/7XLC008/TT/7sz9Le/bsoRMnTtBf/uVfWpdVnJtaV9HErkvoI7ceoqt811KX6Xpp+vxtrqFh51RXLst6Kllh56C8sxswL/yaGL5/pu+lu9+mY+ga5u8LbIKIa06QsHM/7Pce+lfigYiRS2+hr3JTtGOisKCapj196Crx8jX5+qu3XKqWhCh6kIEv0u7kx8uZloU+cXGWrqIXaF01KeUf0isOXEbHXnO+E6/xXb4XbmgrJHuWefoQZdU8G08euIvoXmdd/v7dd8P5dP7N/NZrTnq+u4oyvdUJetpN79hldOCKWU+B774b5Abk/GN8Z+rme2XhjLtTyO/7VYec9e++Vi7/0oPrNPG02h6nSeLioNIMWsfP5lixoLwBQDT3ji3/TphuFnTyHXe9cNcaZeUyd9Mnf8fuex/K93vaye+Mze/dMHDLAUGtDfRyQlplBj6+x48fp/Hxcfn3Rz/6Ufr93/99+dqqrPLwGt131QTt4ta1l+yiCXHtWvM1igi6XtpeZ/xszus4OBBw8wHy3P0NOwd5+V03vECH3Dwcm1Br2V8To+jfS+4KGXQM2Vb5vkDvRF1zTKLO/U6/77C5Uuua8dL6C3TTHudH1x0rAjpjW0AwBSSgD8jIr4PvVnAr00NPLzbHQZB3+e5t3elxlnmSbjqmLXPpLXTLtTGaq930SbrlUmf5S27+JImfZvHWzfJuTPOu4gtOX7xmnu515ksfuVUGK/QC31WH7m1uU96ZenKdwoLZl95yd3N5f5o2bI6VK27eAMDr0lu+KisfooYh7zTZFA6tvuMTtzaXSYT2e8ri/s7Y/t4NOpvrf1CAIq6g7WyIz+A//If/QP/yX/5L8dk4x/qd73yn/PeVV16R/7KwvD68dh9dNbGree3aNSEqL9oHlcj10qfba5d0n6ggqbu2zk2AB5vbtDsHW+OqjVwr9kesG+eaGEn7XoYdw63yfYHei3PNSfTch76SeCCCm8bwCXWF+FHjSBe/vuG+J8V5xq/bm4NDNP0i777mC3fQxTupwgUk5KV1ekG9lHd3tAJGkyxcq7t8cpmbSMXxOnJVW+TvquBgoEzP/Y6qgtP5V5D4Cntc1pbp1l3JIBzBbm6Tm8zFYXOslE7yBgBeeovGJ7lwaHGXNeo73v7d7JL+e6rE+p2x/L0bVmkFH0zbrVQqNDY2Jo+x7pd/+Zfp937v99RfwbhlwF2qW4brkl0TouJxV6trQALXS5Ourl1MtQiWA1U+eYA8Q1tEnYOq5Qd3bda7R8S5JkbxfC/DjuEW/75AuqyvOQme+9BfEg9EyKYx/MMr/uPmMxztusptJjOAo+HzxVWf+o0pGGFzJwR66Fvr9KTbtLRvOd9XLjjp090d3lXi6DX3P/U257xJzQWAfjZy7d3OtVuv8Pls2ndc+z3tPA/J/t71g7Cyir9MYFqmE2Hb+bM/+zP68z//c7riiivUOy385IydO3fSs88+q94xe+nBVVEF9lWCecwx8d9q3MdnWEr6vJaDrIr177vB35Uh+BzkO723fFWkK76DL8gbept9E2/4vi/QX2yuOTCc0umawXcsrlJPyeBCg2+AnkGRxIW6G3EDCghA9B8u1MzecF+zW4S/f3OTvMunor1BywTh75h62ZG46dmQ+yMKLw+2mnNyd61YbI4VAKRD3mkKGUwsie94TG2/p53kIY3fu01mKqu4QYKockxS5Qb/dr761a/SOeecQ0ePHjVOr4mK7X/7b/9NLd2OB1V8cPVJuurQ020VYB73qPkEiiQ+T/0amsZ5rboy3HWvyqRlnvlu8YPcD95dt9NrYlQZISw/Q/h9gT4Vds3p9NyHvpdOIEILPuhjRQySXgYhogoM7gU+aj5DMKJ/yAGn+OkxNx1r3jnggoV8BJk20BMXuO51RrKSLYaMy4ht3SObaF5M2avEPNXO0y2YdyMoT/fcFnOk8LZxGVoXDWewLkNRKGQsB5tjBQDd4+/ndb4msS/de1d7c+1OvuMmHYzhYvo9dcT7nUns965P2JZVuGzgLx8kWV7w52Pfvn30sY99jPbu3WucbrzxRvr4xz+uljZQj/fTu2W4ZPcM1d0h/HqpeM43m2toh+d1AHeciScP3Czv9kadg/zEDE+XDIG7UthdE+OXEcKO4bB9X6A/8Plldc1R7M59pYPrC2yeVAIR3MTGHa2UByMZ9OZb7gU8yYu2iWn7NmnaFkQgZdrgVE4T0nX6JDdn9I3cy92Xnj70guz/KZc7/wpanXja80QZXubYTU4fUWdbq1y+cAo0Dx6jm1Ra55+/Rnu4OZtar1Nt6XGess4AYVbUHR+5vri48EXjXjkGkdoeD9blb97qW8fE5lgBQJf4TpTv98sZnbw1MFhH33ETi++9ZPF72unvTNe/d33Kpqxis4wN0/pcFkmqPPLwZw8Ed2mUYyiIU0SNlhh0vZT8523ENbTj8zqKzIeoSGlPmwo8By/Oqi4Z6n1xzXPL0VHXxE7LCGHHcFi/L7CJbK45PlHnvmR7fYG+MVJ/9Y2NL33xM/KP+d/41/Sd73yH3va2t8m/+9Hq6ip9/etfp3vuuYfOnj1LP/jBD1LJr34xDbpgu8t0e0H3b4f/DrrI6/TlWbf5AACAZOnXrH6/vsLmi3u+6OUCvQxgKhcElS064S+P+KE8Av2oV3UIgK3I/X7deeed6p1o6XTNGHBBF/YgURfkKJyGm467Lf7Xv11/XkzLAAAAwPDTr/96+cBULki6rOCmp5dfdL3IAwAADDYEIiJs9oXTNn1TQQAAAAC2JtsAQaf07ZsCEpyWP73NLlMBAED/QCDCYDMr9VEFB9PFfjPzCwAAAOkyVeD1a3+/VPCDyjAIQAAAgN+WDUS4F0abi2OvL6CmYIM/r+4ypos+AAAADAf32h9VFtHLCZtZNghLG2UWAABwbfkWEUEXRf/7UQWANJjythn5AAAAgMGklxuSCAS4AQ998uN0/GklkTYAAAyPtqdmLC8vy9f9TB/xlkfo7EQmk5H/NhoN+S//7b52ucv48XL+ef51k2TKR5rpAQBActxr1iBcX2Hz+c8XvQxguvYHlVVMui07hKWFcgkMgiTqEABgFvepGZ5AxCt/9t/lv1vNddddp145vvrVr6pX7fNM9OXTZMpLr9IGAACA3tKv+2HX+16VVfqpTAQAAP2n40DEr918k/x3qwlqVqgzLcOSamro337Qdm3yCgAAAINPv+bbXOt7WVZxt4lyCQAAdMITiMhefKH8dyvasWOHetVy8uRJ9cqLlw2a14k4aTN9+STzAQAAAP3BXzboh+u9myd/XuKWYwAAYHjt3r1bvQrXFojYu3evfN3Pjh49mlo+z5w5o161bNu2Tb1Knik9ZpMmr5tm3gAAoHtpXrNg+Ljni14+6JdrvZunoPz0ugwFEBd+jwHSw98vZhuI2PJPzfAzXTCDggVJ47TdyQYu7gAAAMPHX+7gv3tVFjGxTRvlEgAAsIVAhIHpQrrZBYDNTB8AAAA232aUBdw0bdNGMAIAAGxs6UCEW8F3Jx1fSP0XU9Ny3dC3ZXPhTjJtAAAA6D+m8RZ0/VAWiMqDW4ayKdsAAMDWtGUDEaaLqOk900U0jUJAPxQsAAAAoH8EVei5zNCrckNQMAHlFgAA6EbKgYgz9Ni9B+mBuvozTZUZGhmZoYr608bZ575MR44cEdPj9G313olHvyCff6pvy38RDroo+1VmRjzb4b/HFhvqL6Kn/vft9OXnzqq/NkdjcUzksZVPf557SeZlZjNS7o1O9m8zPw8T//kyqDbzuPp/B/x/A8DWFVa5N5U9EIwAAIBBlVogov7AQbrjjnvo0dMj6p0+c/Y5+toTRB+c3Ef79n2ILvK9d/r0b9G4XNDBF2HbAIRrfGmDNjaWPNsJ0/MLemORpuaIiuutfMbN86bi4NPYIg1NFc6wP331eRjOl8Qk+VlabCux4zps5yAAbCq9nGEqc5je62UwYjPTBwCA4ZJOIKL+AN1fG6W9t++l925sqDf70dvpRzv9zR7fTuee67wyXVxNF+FufOEb3uPT+wv6KOUy6iVAJJwvAB3jwJVsUaQmQwspp7WOmvxBLov1m+SyY2Tb2CaxdI0atDg2Qu2rOe93vt3hdPLkSfXKzBQQ4LJDLwMSfghGAABAXOkEInLX08GD11NO/blZWs3IeWoVyPj9IytP0GmqU0EVfvi97ZlraN+Bj9KD3F3jcaezhn5xlwU1T0GpQjNiff0tvfl9UJPrqAKDPp+7ijjdR5ypLa3m/vnz5hb89IKe9xiMZOeoSqXmMWDePLvbcPZT774xtljxFCDl6o1FGlN/2zR79xd8T6j3mzzbc5ZxcybXLZSIqnOU5XnavnuPi68g7ilQhxTSQ9JuHRfzsXVF7p8maH+cY93asPN3/GPf7TEJOl+Y3XnoPYd0SX6WYdvSeY+rxecZJ63Qcwe2LnF+reZofYNb4/BUpulSwfP95vO9UCuqZdapSOLcap7D0eu3iGUXxLlpKbl028nvyUiW5qrqjSb+von3R8tquyLdWiHwO7vV2Nz0SDsg4JZF9DKJKyht/3IAAABBhnawSi5YZVcmW4Wn8ijNZZ1KUGb2OO2b/CBtpxyVed7SuHxvY71IeZqm93/qU7TvQ7KzRhNfXMcnpolqdVF8UiqrolpGVFptFZxO1Ks0PRHc4Pvj7291Vblg9yH5b1CBg4MQK0+8nXbt4+4j++hTN7ylGdyR+zc36uQ/pBBXKkwRLTvLlKerNDflVIr0/XWPQZDawirlfM3xq3MLze2uF/MiHVHYlEmpvORFhTWkQMmF01bBV0zzdSr4SqqNtTpNynTVNrXCsWxaXxafR15tQ+U/7HMXM2msUFNdC3jepFzHJCxtV9CxZTb7pwvaH5O4xz6JYxJ0vtieh6ZzyJXkZxnnOPoFfp4x07I5d2ArytDs0qz4v2uc9ovvb3VlTf1uVOiw+I2YnneXEcsvi+9caUEFxaLWb2ksTokK/rT4ttpILt02lRkqlPg3o9yel8YarVTFvOZ31E131fmOg5W0ghGmbbiBBncep512MAQAAIbXkAYiuGBFVFzWCk/j+2UFjWMG+kXygoALpjE4sDNH+eoKranSV2W1RNNFUXBqBicqtFrKU26n/CPSqa8cUK9MF/RvU+2J05Tb5YxfIedlZmlWltnU/q3rlTpzIS5fXKZZdRDG94v51XronXmjyf3NbTRNzzffy8zOy0KmpyA7L97RgzYeznHyfj5LovKnXiuZ2SUt3ahtsvDP3aF1LRgXx7O5oJdN2sHH1m7/Ohbr2Cd3TNrZn4fGcyhUmvk2C/+u2KcV/7yFrSqTG1WvhEadauLb7IljZ3LizKtSPeBH27O+q8FjuYyKCv6EeiNCUumaiN+9wLFYTtRFCj4y3RrV8WWJpb380J24gQR/2knmBQAAhtdwBiJkS4UqzWVV02g5ZelH//QQ7b7A/gLbdnHP7KHJvFs448qmKLzNioKTG5zgdPOTtCekkuIfE8LPTXPbU0tUpxy95QOGAobcP0NffUMhbrRtofiFvPZtiEpbW7TFPgDjFHzb878zl1evWviuePMz5GbwYQI+92ZDBPn5OV0LbG5QR6UdeGxj7F8nYh37hI+JR1fnYYQ08x0g8PPsIK1Y5y1sWRzMFieeE2zjink+R96v8k4K+9nwrC81aHFqjkbLAZV/k0TS7QAH9tVLr+AACIRrKyskoFkmidi2zTIAAAC64QpEeApTqgm5NnH3Bl+PCykq+t+6wGZoz2Te6YrBlU2Z3jhNTDsFp0a9RvnJPYGFM7crhq0DB76iXg0Z052wNs6YAt6m+TZNCto/d56c1r8Zmj0u/l4vUo27MwSOY9Fp2orV/vVSEsdkM/RLvuOk1eW5A1sGB6tkt4Vm14RgNUP02LR+ZcYZc8Fik1Zs0+2IG+DTonuVmQIhbNedXgQE9O37y09ppw0AAMNjaAIRHARokndavHdko4INtk0RM3smZVeMytoKkQo68NgRpdVFWlupBt75dbevjxERyrAPTUHzAu7E952A/PP4Gk2quXD5eKtpvuczNgk7ZrrMLB1XYyksmAZc6yRtnc3+9UpSx8QkzfMwzXx3yiatbs8d2BJ4DBlnbBW7lgv+64pxfR6PgcelCQwQuAPGulN08M4q3Q626+AAnzPwpbvu6gSPJRGjdR0kTi8LhQUcmG25CQAAwGRIAhENGQRo9pMXFYZ5HmzOHdhOOkvPPf6c+L+6Y7DxDfqCr8XBmZH308cP7VZ/BeBm59U5KsxxHEIV0rjSVFuRA2+FjFPZJrSFhGkfGou0yH8Y989pkkvF/fZNcjeLm39tcEdZiG67FaZVRGW/Z0NFXu/HH3RcZlQ6Ig1/0/rgLgMWaQex3j+DTsbwCJPoMfFJ+jxM8rNM8jjGTquLcweGnDiHx0aoQPykCEMQou1cOkHe+GXQ+uJ9fkqG+wQXOXHrAv4OidfyBB6nJa1lkWf9jtNlIduN5F13aeeABNO3MFOLBwQkAACgEwMfiHDuxGRpZXLd0xyVR7QvTzv9urlQtn17hl467yI6V813nTJcVIMGsHRwVwzxjz4WBDcxFQW+6vREYAEsqLliWAsJ/z6MZFfI7XvC89aLtdY8dQyOdztiX4+ML6mnCbj5X52QT4BoEhXR5SI5hWiezw808DdxV4MXymOgaoptx4yPS051l9mZU03r1fu+c6bJJu0IkftnYtifJCRyTAIkdh4m+VkmfRzjpJXAuQPDy+06YXyay/gETetBLKZa2LgB7uD1VfchrVIvH7NJeedpL2Ff6q7STVZjbSX0Ogrpi2oFAQAAkJSR+qtvbHzpi5+Rf2QvvpD27t0rX/ezo0ePxsonX0z54upeVG0j+kHBg24EXdjTSAsAADafvGZ94GUay67Q5PrxwKeuNB/7K7v2cCsELbDXWIxc34u7TCxQzmL5ZNM14bwUiMruGC8GlRkakY/J7SadwcdlhJdeeol+8Rd/Ub3Te7blFH05lGFgUMStQwCAPf5+sd27I3oYKMP51AyNe6EMurC6+CIadpFNiikdlkZaAADQT1RXCdm6pjW5DXdkK6BRtyWV0wrB27oofP1ObU66TneP5vZknAJBCFe/lwn0/CEIAQAAnRj6FhFBF/OwC6e7TtoXV1PecEEHABguuAMHNtwywWa3iGBBZScTlFtgkOD3GCA9aBHhE3SBDLvIJnlR5XT0SWdKx7QcAAAADLd+qtDb5qWf8gwAAINl6AMRLOhCGVbhT+Liatq+G2hw53E6prTC8gYAAADDYzOv+Xq5RM9HUPnElUQ5CQAAtq4tEYhgva7wx92uP2+4wAMAAAw/t7yQVnkkjClN/3tu+ck/AQAAdGPLBCJcpotn2hd/2wu3zTIAAAAw3DYjKKHj9Dc7DwAAMNy2XCCCmSr7vb7o6nnwp4tgBAAAwNYQdM3vh0AAghEAAJCWtqdmDIsdO3aoV46TJ0+qV17+5VjQsrb0berbMr3vvtdtmgAAADC4TOURlmb5wFQGMeUDZRQAALBl+9SMoXx8Z1QE33/3QV8+idYIQdtz3ze9x5JIGwAA+gseFwdxfP3rX6dLLrlE/eVIq3xgKpe49PKJC+UUGHT4PQZIz5Z/fKfpwhmFL6xJXlz1bXWSHwAAANiaTK0PNqMsYRucAAAA6MRQjxHhBhhsgwy2y8XFF2734p1WGgAAADAcTGUFvSyRBH1bQdtFmQUAANKypZ+akeQFvRN6+rjYAwAAbC1cDggLAgQFJLoRlqZJUD4AAAC6MVSBCP3Cql80TRfcbi/kUYIu2m4BIO30AQAAoD/5ywFhZQN/eSKtoIApbR2nm1baAACw9WypFhGmC2jUhbcbthdsXNgBAAC2hqhyh+mpFUkFAaLSTrNMBAAAoBvIQETQI670i3SvL6acnj65ogoPSRQsAAAAoP+ZyiamcoBpOZZkmcEtn/i36S/HAAAApGFgW0ToF8rG4hiNjIzI6ciRI83pC4+eaC7jXmgrM7zcDH1b/tU93t6dd/5+c3vffvwIffm5s20Xcf2Cr0+9JI/TTEX9BWHc82QQjpaTV+/Uzcccf98btDgWP01OZ2yxof7a/GPefhzHSMteijo/fp789ul3uy2fY4tij73033B90s8PV/vn1Dp2cl6fHgcAP70cYCoTpBEMCCp3mN5PI30AAADXwHfNaF4op8u0sbFB+/btU9MuevsTK3TkyOOeoMP40gadPv1bdJH6O+iiLEq0xgKzH29v374PNben47x1dCG3TBsMOjl2hnX4c93YWKJx9XcqEvyc88V1ef6701IXGU9l3y32tSfHPIJ+HNeLRHPZXgUj4nACFwVyfvPcqZyrt45vQt+D7lRoZkTks1akdT2fo3OUNQWc1G94ayrT6FyWTMGpJM93gF6xKQ8ElkkSEJU+ghEAANBLQzFGxMj7P65e6RfSi+hD+ybpg9vr9ODj324GBTbjoooLOcDgycwuUzFfpZW1PotENNZopZqn4n5v7Xt8dpYy6nU/qMwUqJQv0vpxb7444FSeLlEhsuXCOC1trIvPwGZZgMFiG3BIqvzgbidqe5wvf95QhgEAgDQMZCDi5MmTbRfKQ7svaF4sW/POpfdeniOq/2lb1wkml+O7gM0mvs7dT9m8t1AiqvKdO7epr9t82rnL596l42X17Z36ygH6wjc26OxzX251E/nyc3SieSHn9X13WRuLNKZtrz1th7f5cvSdWk8T5rFFOqHe17U1iTYU+P3LOIuE7wfj9McWK/K4edaVy7nvtd/tDN5P9zNw/vXPDzx2nvTEpN31DVrHybv3AIcfq/C8+QXmVbD5TOyYz1k5J/AYm/dd5tddXhy/Cq/flq+Yn4uPN1274xl9rrTvezfCjpuYGXieufyfrfdQhO9rUyZHo1SluukLLQQe7w6+Byx0nwNVaFVsbnreHBwZ31+kfGnBYlsZmp2fJiqtJvL5AfQKl0fCKvBh87iM0wthedDLWP7yFgAAQBIGukWE6eKoByPk/J85j7bT9+msEytokvO4YF6oUXFdNfEtT8p5sol4WRR++W4ev6+1+60trFJOLh/chLw6l6Vf+cbV9KlPfYr2casMeoJWmq0yLlBLmQWlzZWB7Mpkq4lzeZTmssGVK65YeJpEz9epMFdVcx1ym3OjVHaX4buPtUJbJcSzzHqRcmqejercAtGys+56MU+lgqjMTPFbKj3f3U6b/SwV5Abk/PJ0leamnApV4LFbq9Ok+xlzmiQqWyrNsM9aZ3OsWFDe/EI/Z4t04vCfszbHWGdzLrG4n4uNsONpsx8239coozmnKh2VXth5xto+W993yfbcEUeU9qvvkmkMhSS/B3HPlabKKpVomiaCDnpEMMVjZ47yVKO6+WAADIzNrNAHpW0bjAAAAEjawHfNMF0o9Qvrtp0/oicPfIG+seEEJtwWCy2jpOoZojQ+S7NRbZsn90cvM12m42qhbdt20nv/0Qdpe/0ZUg0naPehVlcSOxU6PEdUXNbuLo7vl5X4VWONgO9G5n3LL4nKjXotqW2u6xW0DM0u851K9+4jL1MVu6MtkxHHKKhyYTI93zxemdl5UTXR75Kqu501t2+73X7mi8vNbco7q9W6sbWHKzO7pH1m/jRt2BwrR9y8edmn48fBr9Zda19F0XPO2h3jFptzydHdvpsFb9NyP2y+rwEqM1maq7qV6ej0ws8zXj/8uxTn+GVmj8tABqnP3RSQ8Iv/PYh7rqREBi28Qs93gE0WVrnX2S6XFAQjAACgnwx0IIIvnkEX0Oa8Rp1q6r02mT00KQrVBVGYtb3h7N4ddV2w+5B61bqY53M75b8uDoa8Xb3uiLy7WBV1DrfgzRNXktR8P7nPWoBF2ZnLq1eC3Gb7Mk6hX919jLqracF/LMQ71PaWy3I//Z+BqE1F3i3lO7vNbXIT9DhsjpXSSd6aYqTj5x28Tw9k+PJkeYybbM4lpat9DxC4zY7PlXB6BddpBaKOpWV6geeZXD/8uxT7+GVm6bhspTDt5NviRyzW9yDuuZIWw2942PkO0C/0SnxYWcVPf0R50oEA3p5pm0H5AwAASMvABiJsL5pnfrCDqvlJ2mOsj2Ro9rgoyK4XqcZdBmLcWeP041y4v6JaZXRuWmuu35qMrdxP1EX1YVDF2E8rzhgB3ublhtv5W8qwnEtJnyu+Cq5vkMXw9DbxPBtfkr9h4WMudJq/Do9xVHcKGVwICUrq+BwM/A0H6F/+MgL/HRQE0KdeQDACAAA228B3zWAb3/gCHfjKKUOk/9v0+IN1+r1//zFfhcJH3llcl02OF+xGYgvELSSq/o7P8s6ic1d527ZTMijhEVXZi9tHOmD5E3UtlaBt6nfA46bbbaU1bno25P6IypRWqWzUA9vImNkcqyT0Ip24xzhgec+5tBnSOFfCRKUXdZ6lnd+oMRc6+R50k2fxmzrP41wcNod2K4fnqKp12wpWoZlCKXDQS4B+ZwoumIIAJrbLdSooGIGABAAA9MJABiL0Zosm8uJ69jn68pEHqZ7bRR+6KODiWplp65LhaR4d0Ec76iJ9aMc3tO06Bel8cb9qPryTcnm9gO7Mb6On7RbqPYPENWhxJmAwO3d5fbA7sa+eZIK2OcWdwlVeTcs0FmlR/mG5H3HE3c8gbZ+bVpkS+Z8ytS0P6Y9vdaw6ZfM5J5GOK+4xlt2XxPJh55KtsGMcV0fnCrcKsH3qg49VeiHnmWn95ncpJh5k1/fD1VhcaO/60e33IHKfw4/n+FKZpkvtA63KwU9L01SOalbB+zlSoNJ0uatWLgC9FhRA0N/n10HLsbB5cbnlH1M5KCgfUeUcAACAbqUTiKg/QHfccUdzOvhAXc1IXvMCygXeZj/mEdqeuZ8u37eP9nEUIsjOnOqS4fR9XplcbxV41aBsPH5EWN9rd/BL/UK+/YO76MaX76Q777xTbNcpSLuDV4rSPc0eVwV0me4qTXCzajVXMqTNo9rLZ+/LdVR+c3sC7xKOL6lR8d3lVyfkUyt0vM31Ys27TXEMWnk1pJtd4RiEYLEfHYi7n238x05UppblmH5qe/xgAn+TdIvP2uZYxRbwOSeejk+8Y8yfc/S5FMny+xRH7HOly5YloelZnGdt6ze/SzFx6wff753zNA5trISEvgeh+xx5PMdpiVua1bx5LVCZjOM6+PZpJFunee4KEjcK4d+O4TGqAGmzrdy7gQB9SurxnabAAzO9z+nq/H8DAAAkbaT+6hsbX/riZ+Qf2YsvpL1798rXnTtDjz3wTfr5668m5zJWpwcO3k+nr/lVuvnqZC5sX//61+mSSy5RfwVfMIMu+klwt+3fXpppAvQLvqu9kEs2QJK6yowMosSu2IIZjqe1o0ePOtdWPmZ6c6Lpctvxc1qMqD/4car6WCUW6zfJZfnx1MetnhwTmm5TgxbHslSftxyLxZdfHoPF/5thl+7g6qRM0DxfumRK28+UF14P5RYYVkl9vwCgHX+/2O7du+W/UVJoEbGNrm4GIViOrr7mAjr1/Dcp+pJox/ZugX4h5ddJXFijLuxBF3WAoSEqF9y0fn6QghACj4kw3c0jYMADxzMuUYlfzbUGC91wWpTpj17lp5o4T2vh+aolUrMFUfT6LWLZBS1gESE8XQcHDLhFTJynplRWSRvstEyjc1lPd0ibdIcRlwnSLhf4tx9UBjLlI4myEgAAQJSejBGxbft29Sodvarou+lEpWe64PcqjwBJcyog2lTgysXgPTIxM3scYw0kCMczrgzNLul3+8dpfzFP1ZU11XWkQodFLb81MKdYfll/GkrU+i2NxSmaG50mu+e2RKUrqOBjmYMf6i0b40v678Q4TYiVS6tuoMEi3SERJwiQBj1tlE8AAKBf9CQQUX++RrR9u9ZKons2F9JeXFzD0vBf/AEGEY8T4D620ZkGLwgB0I8yuVH1SlBPNvE0Mol4GopnfZcciHSUyksT6o0INunyI2IT+t7n3We2drC/gyiqHMBliM0IBKBMAgAAmy31QMSZx+6l+2ujdOP1OfVOetwLeloX9qALd1hauNgDAIBJZbXEj2pyWgTw44/zOd/4pfx0IvXSwLO+1JBP2RktxwgadJBuR/xdunqVbp/hMkFQQCIpvC2bsoe+TBplJgAAgDCpBiLqDxykzz2ynW48eD2lEYbYjEp+UJoIRgAAgC05PoLNY0yFWvO5qy2m9SszWZobTe5xp6Z04+FHvKouXQs8voVdgKT7dPufqVyQRDDA3QYCCwAA0O9SCkScocfuPUj30410MKUghIsv5lEV/aQDAUFp4sIPAABReNyVtkeuhhj1PSPVuD63OOCBHwOjEFpQQE4z4p1w/nTNwrbLj3BVXbqWiabEfPPgml526Q4+m/ILAADAsEolEFF/4HP0yPYb6WCC3TG4ku9OO3bsaKv0my7oaV/kTdtGMAIAAMz48ZcjVKCyecyFap28wyOcoLrnKRVB66unZFTnKNsMCBSoRFWay4rX8kkUWlDAP9ZLZLphQrary8zS8fK0yOLhVqCiq3SHh1uWSKK8gnIJAAAMiuQDEWceo0drF9A1VycbhDDh94MCEklc0F1uOkHp+ZmWAwCArc3tOrFharUwPkHTVCNPrwTfgI7B62do9rgeDOCJn3CRp+K6eB3WV8Mi3VRsVrp9Kskyi6kM5C+X+P9OMn0AAAAbKXXNOEWP3nMH3XGHd3qgrmYnLI1KP/e/5btIpm173qvM0Pbt2+V05MgRZ3r823JWGvli3CzXpnlrIsT+2TThbXHu2G2BR8EDANhrLNJCKU/F/UG1bH68ZZXmphbFryhzBp4UKzgtDCLX71REuh2r0KLnOlWhmUKJ8s3tppUuuHCjBAAA+lnygYhtV9PNBw/S7bff3jZ10lNDv2C6Uf6TJ0+qd1p6fXE9c+YEPfqFO2mkQFRWd6A+9alP0b59uyj3/bN0ViyDOwwAANCiuko0u084kxu45Ufllkfd7hVO64fj7lMmpPD1OxWdbid2Eq1ktXwWqFZc92w3nXRBF1UOcctVAAAAvZZSi4jk2V4oexWQOPvc1+gJ+iA1Tv+W5+7Ntm0foF/++IfpXPU3AACAHCPB03WiNek9J7hy3pynz7Bcv4XHbjhOtvX6wHQ9nPEgwnp6tLR3FzEFGezShW4g2AAAAP1oYAIRenCBB6tkzYvr2efoy263CJ6+/BydaC7vdhVw/nXuzIyRv2cDd3do3rkZW/QNoNVKy7mYf5tqT5ym3OXvlQEHU+DDWU5oLNKYu121bU9jVdnNoqLlTd3d8qxn7hohu4+4y/i2yzzzPfvsHhN3tPM4XS/82xWT8XZc0PG2+DxkdxDzvPC0LbYNAACQMPcmiD5thrC0m+USzWblEwAAYGACEWFe/7/up0sm99G+fTxN0gfpCcr870+puY5SYYpo2bnrUvb0S3WCAfKxZ+5dmfk6FeaCh+7e9tQSffTASfq5i9QbQtDFv7FWp0keLExue52KNEdZX8W9OrfQzNt6MS/yKirQMrtqnXyJCm3rZGmKlgO3yxX27Mpka5/KozSX9QYcagurlJN5Cxjl3EBuVz42Tm2X064V2oIRYcebBc7nAEyh5gywJvM9KZdnSaUNAACQlKDKfC8r+f4yiPu3Pw8IRgAAQL/o+0CE6aLpl5ldoveqvhDbtu2k916eE7XsuqfymS8uN5uoju8vUr752LAKrfIAYMuz1Gw0Or4kKrDqdYhTWt7OPvdl2RrjzjvvJL2FAeet1Ro1Q7PzYsO+vNH0fHOZzOw8cdLT825+gtbR+9KKZZbFPpUW1N3/Ch3mMb88+7RfBjRW9Tr75H7rZrsOtd11PXDhpr3qCXIEH29H+PxRaj5GfnxWLZdc2gAAAL1gCgYkLWr7pmCEv2zVi3wCAADoBm6MiKAL5ev/8Z/LQAA3x99+xUfVuy2jzZqtSz02TD4uTKv4KjtzeTq0+wL1V3C6br7Ofe8/c1pkTH6Q8vKdFk93gkJJvduSz+1Ur1x5anvLp22dTE7shVJZbT0/3k2XBwLzNfJoPyYR5Hbbj5WTtvcxbIHHWwmcn9lDk9wCROTZ09AhwbQBAADSYKrks7Qq+abt2qbfy3wCAAD4DUQgwnSxbHHGOTj2M79Nk/v2qeb8Fs0ZXCfqosruxRfikfd/XP1lsDNHea1yG1TwcPPm7SIRI29dmda6MLSmjsYCy+d4/PMeyTgDnK0XqcZdVGKOXwEAALAZ9HLAZlTy9bKI/tplE4zw/w0AAJCWgR4jQl5UZYuGadr1z5yBI1mjXlOvLPiCCq6/eP20etXSvIhnZmmexx447K0iywv/xjfUX4LKW/l4q4tErLyFqNZ9nQ30FgMB+9QJT36DthvQqqQrcoR4Z3yMBe5v0su0AQAAuhQUDEgqIGGzHZvAgimfAAAAaRu4QETbRX3k/fTxQ1fR2bPqjcYiTYUMNNnGDSqoAQ3lhf3bj9ODdWe2n3vhH18q03SpYHxahZdWeY6btzAi7VbXhQrNFEqUL+53xk9w98kzOGWDFmfiDtrYoLWVamu8iqDtTvHgDSrtblVmvF0yBNnVohdpAwAAWLINKPSikm+bRlieEYwAAIBe6stABF8o9SnUue+lf/RBoidWjtD27dudp03E7P4wvqSeOjEy4jz+809/jiY/uJ0OfOWUvDC3BT9kvq6Uz1MvjzrrNcdiyM7RaFkNqCgqz8tFao3V0EHeguSLZcotuOkWqOQZvJL3iZ8Y4Yy14I4RsZLb02yZEc59rKdYZ3K97Rn368Wad7tiGdPz4TuyM6e6ZLSnn3raAAAAFtyySWQZRUm7kh+WDwQYAACgH43UX31j40tf/Iz8I3vxhbR37175erOYLqb+i+jRo0dlPvVlk7zQuts1BSD8cIEHAIAw7jULhkdQxT+JMkGc88W2HJRWeQlg0OD3GCA9/P1iu3fvlv9G6asWEUEX9iB8MXWnJESlb0onbp4BAABgsAWVO5IuE/D23CkKyiMAADBI+naMiKSDDFHcC3jUhdyUJ1z8AQAAtpag8klaZQKb7ZqW0d/rVZkKAAAgysANVskX1B07dqi/0hV20dcv5riwAwAAbD18/TeVAWyCBp3wbzcobX0CAADoR30TiNAvljYV+6QvrkFphqVjk08AAAAYbmkFI3i7/m3zduOWmRjKLAAA0E/69qkZmyHoIo1gBAAAAIQxlQf8QYNOBW3bxfPDyiMoqwAAQL/pm0BEv1wkgy7mmxUcAQAAgP4SFGBIswxhs103ff8EAADQb9oe37mZ/GM/nDx5Ur1q0ZcxzU+SaSyKtNMEAACA/hQ2RpW/fJBmeQXlEwAA6Fe2j+9sC0Rs9rN1TdF9Hc9/6aWX6JJLLulJlD/oLgbuMAAAgA08t3442LRqMJUNeL04ZQbb88WUH5RNAMLh9xggPfz9YraBiL5/agZfaN2LrU0hoBN6Gn58UQ8qWAAAAMDwM13zbcsGaQUHUDYBAIBB1neBiKALtv/imsSFnbepb9f9258W86eXVsECAAAA+hdf/90ygP7aZSpDpCUo/V7mAQAAoBN92SLCdGHVJdEPMuoiHRSMCMsXAAAADBebSn2aZQM3sOBOJqb0bfINAACwWXoWiIi6iJq4FX/3Aqu/7oYpD6btBuU1iTwAAADAYLG9/scp64QxbYffcyedP28oqwAAQD/rSSDCf7HUL6L+eUHSuqDydt1t669dtvkDAACA4RZWJki6nNJJ+cNUjgEAAOhHfdE1ww1I9KLSb5MGLuIAAADA+qFM4AYYbPOCcgwAAPS7dAIR9QfojjvuaE7ffPVHakY0PShhG5iozIzQyMgYLTbUG20qNDMilpmpqL8dthdq23x0pDIj8s75d6Yx3040Fsc884OWS5JzPGfEUUtWa1+S33aYjs4P3+fiP3fS4OTTO/Ug2Y6Oj/8c4b/1c9L/d5S2fTfsePt3obfnEQAMrzjljlTLBDHoZZh+yRMAAICtVAIR9eeJ9t5+O90up7105oEv0LdeVzMV28i+XjgIv9BWaWXNXPFpLC5QLZ9Xf7WEbS+RuwlcmR1bpLDqWGWVqLyxQRtyKtPoXLa98jldVvO9y6VVERtf4jSWaFz9HcliP8WHQFNzRMX1mNtOTJzzo0GLqzla1473dKnQXfDH5hgJ+eK6StOZlro9UJbpxv3+xD5HAoljPTZCBfKe4+VcXcuzs0x2blT7roipTLSKSAQMEosApyco5//uWqzfJJcNCzB6JZaukfMdbl/Neb/z7SavmxsU+nvdliGCthWVLgAAwKBIJRCRu/56yqnX4i96zyjRa6/5IhEKX2DdKUrYMnlRUarOHTZUzBu0tlJVr7svHCRtfEmvzI3TxDRRKbJ2NU5LG+tUzJeo0AcFN3ujlMuolz1me344MjS7NCv+7xqn/UWx/sqat3A+ROIdnwQ11milmqfifm9IY3y2dfwbi1M0R0Va9wc+xpe6D9QA9Ex0gJNb/RRqfK7zfPEbL878bPM3Pnr9FrHsQkm9jpZcuu2cAEeW5tp+RjgIId4fdYOQIt1aoS+CEcxfuTeVHXgZfeqloPwAAAAMip6NEfHSj85TrxxRF0y+yMYKGkzOy4p5Wx2+clhWYuYn1d+as899me68886AuzEVevzIl+m5s+pP1liksWYrBC5E8R0e519nG627T7LwVRAFwaoo0MW805PP7VSvwojK8ryMWhgqjw7OAxcWPU3aPXe63H1QTe/VvrnrObrfT5l+do6qVKKCb5m25vae9c35M/Fux3AXsIPzQ5fJjapXAeS54aYvJu04d3Mu6OIeq4U46cY8Pt5zpAuZHI2KM6N+Qv3dpkKHRQ1mel4PDAEMoqgAp/9cF8svFylfWlC/Z/YBUhm8G50mcYWwkFy6bSozVChNU5mDF+qtJhmEFPOa0UQ33eBrWpr0ModbPvEHGGzLJLHKLgH0bSDAAAAAwyj9QET9Abq/Nkofvro9sGBzceV13CncTtozmafSgrdJaWW1RPnJPWKuFwchVp54O+3at49Onz7ddjfmzJkL5L8sLO1SYYpo2blTVJ6u0tyUk75sul4WRa+8ustkc+tWFdrmZ1tFvlA7c5SnGtVDSoPVuSxN0XLrjpPnTpejtrBKuYguE93sZ2b2OG2siwKmKIrKpvVqGa5Ye5vbm++IReVPbmdlsnXHrjxKc1l/0CLe+eHHy9FoTiuMezXW6jQp86j2QzvOHZ0LPp0cq/lY6XZ3fDrnVGpKhYDARmWVSuK8mYh/yAD6nifA2aiLX3PfuR4RqDMGSGU3OPFbsTSh3oiQVLom40vyt8j49T1RFyn4yHTDr2mbwR+MCCsTRJdVOqMHRdJKAwAAoJdSCkTU6YGDB+VAlQcf3Ua/erDVVSPoAuq/0HciMztP09UVanZ1FwWyBUPFftu2p6j2BNEHJz9EF6n3zpw5jz72u4/QkR0/oj+2CJC48sVlcjc/vl9Utqt1Cry5a+TewRbTAjd/DQ4GtJGFtgjTZTre3H//nS5lcn9zH4J0v59+fBeOx4zQ9zfgjlho/tR2lrU7duP7jXf3bc8PPw4CyLt6IRX5zOySlkexH9xapaaPc2CHA0fyXFCtGpxdSOpYhev0+HTLDVSR2vdEWloADABPgJMr5vmcL+i3k3Ltwxs1tQdIG7Q4NUej5RjXkUTS7YAMpJuEtZDqDVMZxH/jhJcxTb2WRNkJAABgM6QUiMjR9QcPysEqD95AdEy8vvcxc+Xef3HvDo+x0Bp078R3fob+6e/N0JUijZH3f1y+J1VW6aMHnqRzz1V/u8Qbb6fv01mtO8Y3NsIv7KNtgx7EvZvD4z2ou9zLRFNxKmLyTla4tm4ehuBF+z60634/feSdbsOYEYY7YqH5k9upijqsW3nnydQfmXnPj8baClWnJ0IL7NwFwWmJEF2w93Sd4C4RHfAOVqnSTOpYRYp/fBKTmaXjvM/laScY42vpATBsbAKcrprhx9a0fmXGGXOhg0ZXRrbpdiSzhyZ94xxVZgrit64/mAILXF5JtszSziaw4OYj7bwAAACkKf2uGduupptvHKVTjzxGdfctw8Xd1W1En+/Wf/xHz9EfnzlB336J6IOjbpuHdqcMBQ3dVw58Qb3qEa6MyYqYadBAA3kna5L2dFP3HAqqy4dvMpWT+fwgeXx5EEZqGySxxRlzwXmaQ1QQwmnV4u0eMq3mDRb745MSbsrN3XjcVjsW3Y8ABk2cACfzBxiN63PXPh5wMjBAoLW+k1PwmDsuq3Q72K4jQ7PHnYEv3XVXJ3gsiTxZDZPUI6YyQtoBgB07dqhX9mWibstOAAAAvdazwSr90rponjnvn9Il2+v0p4/X6Am6hC7yt3pgvsoN50VOr3+N/s8DT9KPdvLfp5yZOlOf1k0jCn+FUuQgflV/G9egu+u9FlTBlK08YuQvbkVV3YVbneFBGIODOO6dRavxHFQf6/Lx1mfRqEe1VYkhqWNlw/L4pEq29FDNs2V+qjR3GC0kYBhEBDjburydoLrnohO0vnifn5LhDkwrJ25doFqLyVYHWus7OWnrd5wuC9luJO+6SztT+E1LgKm8kkYwQt+m/wZNWJkpbB4AAEC/SiEQUafHPN0w6vTA/TW64JqrtUd6OtK5eJ5L7708R/V6nbZfchHtVBfwjW9orRsyszTPAy56BjQUBa0p7oi/XxWiuI+sXgFyKv6xhY6lUKFFTzcMJ418Mw8B5BMaRCFz2qIJbqlArZavltvvRNwxI6w+AwtB25nxDrrY4ozfUCo5gzAay7tybIT2R0qG0wIFYv0pU9+QTsfV6PZYxUrX4vjExndMDU8yYXwu+7phNBYXRAXKHTxPu2vqeeKLUJnRzm2A/hca4ByfEGe9L+DoG0gyeH3+nujBAJ6c1gVFHrw27ELRVbrJ6ml3sJhMwQAOFiQZkDBtX+fmwT8BAAAMohQCEe8gev5zcqBKZzpKp6/5Vbr56vQvls2L9kU/Rznx37s+HNy+k59ksF6sOY+TlFOWVibXvQM7epqNrtKEfPJDDGrQRP8jK1tE/lb0wQkLVCvqeVC0pqtyytZpnguaFoXCfLFMuYXW9jl40bb9bkXup1n0Z2CHt1OeVum728mFVKJlwTtqEEau+Lvba03G3cvM0rIca1Etxw8Y8XfN6PAYuTo+Vp2ka3V8YghrucGtH3znd3vTb75rqp5Eoi3Hg7v2uucIQMciA5zOGC3uE4nECt5gY0cBUhubla5PZUZ89znZlNMJ4QYWwoILpop/2PJxIbAAAABbxUj91Tc2vvTFz8g/shdfSHv37pWve8l/EY+6EB89etSYT307thdzd51hvPhzf96FXPyKPUCiRAVjZHUi9bupAP1KXrM+8DKNiZq2qXvfdLk1pg3/bjcb301rrRC49ZDF+i3cEmmBcuvHrZ6kk1y6JpyXApFn+QYtjmW1gYV5rJ843TqSFbcc0kl5wxafL9dcc436azjLJwCbJagOAQDd4+8X2717t/w3yqaNEaHzX2T9BYJe2Iw0AbYCHi9j2m3jDbBVZdSTYQyTXpnn1k/NefoMy/VbuCWRXRCCJZeuiTMWhHd5f3eS/glC2OByS68CBCifAADAMOqLQATr9oKOCzVAf8rMHo9RYQEA2Dz+AAOXLfTJL61ghH+7KOMAAMCw6ZtABOvmgp5WYWCQ8R0udMsAAAAwC6vgm+b1MiCAcg0AAAyzvgpEuHp58dXTwh0HAACArWkzygOcjjtFQRkFAACGSd8FInAHAAAAADaLv8LP5ZI0ghT+7fDfPO3YsaM5z18mSiptAACAzdaXLSKSYHux1pdDEAQAAGBr4vKAv+yQZrkgatum/DDTewAAAIOm7fGdg47vJOhOnjypXpnpy0ctCwAAAMPFX25w+csEaZcXgvJhgvIKAAD0K9vHd7YFIgbh2bphzwA23SkIuuvQyzsfAACwNeG59f3NptygL5N2WcE9X8JaPqC8AtAZ/B4DpIe/X8w2EDF0XTNMF2e+mPsv6P6/cVEHAADYGvRyAV//3cn9W+cvLyTBTV/Ph58/Xy7/3wAAAINoKMeICLpIR130AQAAYLjpZQB/eUAvP5jKC0kEAUxlEDct0zzG6boTAADAMBjawSrjXLBxYQcAANh6en39Dwo0AAAAbDVDG4hwhQUkwuYBAADA8On0up90ecEtg6AcAgAAW9HQByJc+gUfF34AAICtJ06LhM0oM+jpoPUEAAAMsy0TiAAAAICty63Yb1YFX083KuCAIAQAAAy79AMR9Qfo4MF76bGUrqmVmREamamov7zC5vnxsmOLDfWXWndkhsLWbiyOWW+/n/V6P0zHVuZhJPqY9xObcwQAAPpXP1X4Ta0uEJAAAIBhlXIg4gw99mhNvU7H+MQ0UWnVUBms0GqJaHpiXP0dz/jSBm1sLFFnaweozNDI2CK1wh1bU9uxbSzS1BxRcT2FY56iVM6RXtiK5yG+e9AP+DyUAVc1GQLAToBTTf5z1mL9JrnsGGnx9VCJpWvUoMWxEWpfzXm/8+3GE9S9oleVfXS7AAAAaEk1EHHmsWP0yPZRGlV/p2J8gqapRKv+8ktlVbw7TR3GIaDnRimXUS8BAIaOqHSv5mh9gwOYPJVpulTwtMTjlmGFWlEts05FmqNss3IevX6LWHahpF5HSy7ddk6AI0tzVfVGEwchxPujZbVdkW6tMPTBCB2n6aYblC8AAIBhlV4g4sxjdOyR7XTj9e9Rb6RlnJxGEd7CS8VpDuG56z6m39GJuDvKhSd/Qct/x+iEer8pJA25bkHkqSoKeDxPK2y1uiXwFHEHK3Q/uGDHd52cf4O2F7kfGrmsr2Ao86ulG5x/Nz8VmpHznG4M+rGV62bnqEolKvAyIi2bNFvMacg5EcfVfxwqvHwzXd6ebx157Fvb1/ej03w426hon5e6a+j5nNu7f0Qfc/M5IPfZdB567ni2H6smq/Mv/mehS/qYBO4zQE9laHZpVvzfNU77i3mqrqyp71CFDova+vS8u4xYfrlI+dKCOpej1m9pLE6JCv40iUujheTSbSN+VwqlaSpz8EK91dRYo5WqmLfkXqXddE0tHJPFlX5Txb9fWins2LFDvUKAAgAAhldKgYgz9NixR2j7jddTTr2TpvbuGQ2q17zdMhprdZqUTf9Nd3yicWWmdcdITPN1Kvhu8YSlIZvxl0U+82obqvDFlafsymRru+VRmsu2V7JcNvtRKkwRLTvLlKerNDflDYhE7YdOHttaXStwNmhtpVVotcl/bWGVcgHdLjKzx2ljXRQ+RTG1zOuL4xKVpok/jah8xT0OtuLmg1XnFpqf17oo4JcKorIsP0J+T3zG+RIVtM/YZptB54DxPOQKfqGmusbw/ElnIwY2518nx8AvyWMS9N0D2GyZnNZesFGnmr8VXyZHo1SlekC02LO+S3yfp+ZGRQV/Qr0RIal0TcaXmr8DbU7URQo+Mt0a1SMjHMnYjGBEUGDBbR3RL8EQAACAtKUSiKg/8Dl6ZPuNdH0vohBMds/QCi/qTotesMrMLtFssxabodl5f2U3DI83kafislYRFgUsrtvo4qfBd6LIt939spLV1tVEsUkjX1xuLjO+X1Tyq3XV6sFuPzz42FZXaM14bC3zP7lfy7OF0DQDeNKIylcHx8FWrHwo0/PNdTKz8/LOoefupOcztttm8DkQROsaMz4b+HlZneOdHAO/FI4JQL+RLfdGc855yxXzfI52yjmunZTLq5cGnvWlBi1OzdFoOaDyb5JIuh3YmSNzEsEBkDQEBSPSDAjYtnJAawgAABhmyQci6g/Q/aevoV/tWRSCcfeMKq2ommtjbYWqercMhe+aNptuc1NtW/KOUfsYBjsNJbVYachxLKo0l1XLy8nUl9YrKo3RtsEWVJAmxn60hBxby/y35yeK3eep86QRla+OjoOdWPlQ8jlvFUC8Q21vuTo+5iF3GTN7aFJU2rlrjK9xg1Gs86/DczyNYwLQT/h7JLstWLTQqRm+vKb1KzPivB8tU1KNfmzT7Yj7u6P96FRmCuK7nDy9tYEpwMAV/qCARDc6SdOFIAQAAAy7hAMRzlMyRk4/SvfccQfdIaej9NzIaXr0njvo4AN1tVzyuDm/02dVNeP33D53+qx7m27zPVZLpiakbTpNQ3VJ8E3mMl4v9qNd+LGNk3974WnaCMlXh8ehM2kcn6S3maHZ42Ib60WqcRcIw/gLjl6c453qRRoAyeCuYVnuPhHUbcHHH1g0rs/jMXB3s8CT3h27xZ3Cu0cxq3Q72K6Df3ecgS/ddVcneCyJkKBjB0xBgKAAgb/y30kwIGjbpveYG5DQp5MnT6q5AAAAwyvhQMQ2uvrmg3T77bdr015678Z2+vAtt9PBNFtJuM35K4Zm/KoPbPl4q+l2gweRsCWbkLbfUT5R16qznaQRsN1AvdgPk6BjGzf/cYR9nlGi8tXpcYgbwEjj+KR5zDOzdFyNv7BgGk2yF+d4J3qRBkAinAFdC8RPijAEIdq6UJ0g789S0PrifX5Khjsgq5y4dYFqKSRbHYzTkidQp63fcbosZLuRvOsu7TS3VuuUqeIfxQ0GdMImvaCABAAAwFaT0mCVm8Fpzj9XmAtoxq9VVORgXjGqlKKCNq8N+CfJ0cDV6yaLNPQCn7tdz8B9osA3Y3o6hKsX++GnukosrBAV97eObUf5t9VKM6pbRpuofFkdB+4jLZY57G6hQjPRB8orjeOT1Db181Dsu79LRnvXDlfM8y/Vc0SxTSNynAyAdLldJ4wDpnLwVf9+MRX8cwOxweurVk1apV4+ZpPyziC0YU2Duko3WTbd8Dqltziw0WkwQheWHoIRAACw1Q1RIILLU04z8bZm/KKislwkUVFRd4p49P2YIxOOL6knBLh3m1Yn5Gj+TTZpqAH03MdUyreW+KkG6j05ZWklt6d5x9mjF/sRQHaVEHXOyT3enMXKf0w8yCI3QSjuj18sjcpX9HHwNxtepQn5dI940jg+XW/Tfx7uzKkuGWpbk+vmLg0dnn9pniOuyDQM3z2Anmos0gIPkhv4e6aC6c0AaUMOPNkM/kau36nNStenMkNZmWzK6Wj0IEG3gQH/+vq23YCEPyiBYAQAAGxlI/VX39j40hc/I//IXnwh7d27V77uZ0ePHh2IfEKXRMF0ZCFH61pXgDTxIGzZ+jwe7wgAiZLXrA+8TGOipm1qQzRdbo1nIh8t7Da+mtZaITQWrdZv4bEbFii3fjzwKTi65NI14bwUiDzLN2hxTB9Ulsd5idOtI5xeyQ8KOLjvu+/5AwVxBKVn4g9A+JdHGQcgPfh+AaSHv19s9+7d8t8oQ9UiAoaJKKQulCg/meydcwCATZHhMVj83SecSa/Mc+ue5jx9huX6LTz+gl0QgiWXrokzFoR3eX93kuSCEDZMwQJ/gMBW3PX8aXeaLgAAwCBDIAL6Dt+Z46b13Cf5uG0pGgAAQNEr+72s6Ee1hgAAAAAHAhHQd5p35uxvtyUiM3u852kCAEDnbIMMvJy7bJLBgk6DHAhYAADAVodABAAAAAysblo86OsiOAAAANA7CEQAAADAQDMFI4ICC7ysOyUtjW0CAAAMIwQiAAAAYCjZtnLotDUEr+dfN60gBwAAwDBpe3wnAAAAwCDYsWOHeuU4efKketXOv6wrbJ04TNu3zU9SeQAAANhsto/vbAtE4Nm6AAAAMCj8rQ86bd2QBFNLiKD86MtuZp4BAACScPToUfmvbSBiILtmuDsJAADQ73DNSpepa8Rm4byY8uPPU1gQAucLQHrw/QLoHxgjAgAAAAZav7UoMOVnMwMkAAAA/QaBCAAAABgq/VDpDwpGICABAACAQAQAAAAMAVOXiM3GeQprrRE2DwAAYJghEAEAAABDoR+DEQwBBwAAAC8EIgAAAGBo9Gul358vBCcAAGArSycQUX+A7rjjDs908IG6mpmexuIYjYyMaNMMVdS8flWZ2bx8ctpjiw31V/vffpuZ1yQMev4BALayOOMr6JX8JFpFuGl3uy3OFwIQAAAAKbaI2HjvXrr99tub08Hrc2pOGhq0ODZC2blRKm9s0IY7lYlW06x1VmZoZGxRpN658SXO6xKNq787lkBeogxSXk1pJJZ/AADoKT0AoAcFbAMDtsvZSGJbCEYAAMBWl0og4szp0+pVbzQWp2iOirTur2SOL9ESap0AANAPOECqt9qbaY+UOy231OQP2Fqs3ySXHaOQRm4eiaVr5NwsaF/Neb/z7Tr0oIQeJPBX9pMIILiS3BYAAMBWNARjRFTo8FyVpudnKaPeaecWgio0Iws8reb53u4cvkJbY5HGmvPEpBXOZKGtUCKqzlGW52kFqNBt+vB2Wt0h3HzqhTPf+p4CoTMvMC8h+e9Eenlt/3zK4hOa8W9P7o+3a4W/Ow5vLuh4ePPvaOvOo32OVvsIAGBF/I6s5mi92WqvTNOlguc3iX+PCjUOqvP8dSqS+A1r/iZFr98ill0Qv4GWkku3nfw9HsmSuEz78O+qeH+0rLYr0q0VfL/BLXG6NJiCEt0ypZ90GgAAAFtJaoGIkeeO9mZ8iMoqlWiaJixaPtQWVim3zgUep+UEF76yK5OtAlZ5lOayWpBirU6TcnlVSNIKZ7KZf3maKK8Kb6rpRdQ2bZQKU0TLzvrl6SrNTakAAlfECzUqunkqT8rlA/MSkv+kJJVXpn8+BfVeGHms9e4460XiDkBhaeja1g8oCAfuIwCAtQzNLukB83HaX8xTdWVN/Z74g+pi+eUi5UsLKvgZtX6LbCU4Oi2ujDaSS7dNZYYKpWnxG1tuz0tjjVaqYl7z99lNdzX0eukGBEyBARvdBg5MaSIYAQAAEF8qgYhtV9+sjQ+xl0Zr9/dksMpIk/tptlma4sIXUXFZK2CN76divtQcVyIzu6QtLwpJ86IoVauHFL6it2kjX1xupju+XxTMqnU64fwpjFLO3fj4rJa/dvHzH19SeZU8n08UVXgua91xMiINc8zBQH1W63p3HnNBOHwfAQA6k8mNqldCo041f1A9kxO/olWqB/zgeNZ3NRZpigOsSxPqjQhJpWsyviQDy8af5RN1kYKPTLdG9RgXqbiBCZtlopi2gWAEAABAPD3ompGj628UhZba87TZoYjRZq1YkC0pqjSXdZvcm5uP8l3z5nxu7h/GcptRPPmUVMEss4cm8yUqiO3aNmyIlf8OJJnX9m2FiNESxkiurwVKXIaCcOA+AgB0obIqfpNHc07gmivm+RztlHNcOymXVy8NPOtLDVqcmqNRPUAbJZF0O7AzR+YkggMgNvSgRBJBhyCm7aOrBgAAgL3ejBHxjm10gXqZOFmY6bRiyE1G3Wb5rclpKeqMV+DtZmHT0DVsm93K0Oxxsb31ItUKHFwI6/LRaf6TEievAABbCweJZbcFi4tDzXCBM61fmXHGXEjmemOfbkfcYLUWqa7MFCjpcLkelPAHDpJg2iaCEQAAANF6E4j43hk6pV4mThZmqjR3OGY1NyqAoZqrlo+3ulk06jX1KkBXQZEYMrN0nMczEIW4haABwzrJfxps8mpLb8rb7bEOWl8eN0NLCQCAhPAAjs74NHYtF/ytsozr83gMPOBkYIDAHQzYnaKDw1bpdrBdBwernYEv3XVXJ3gsiTzlvM0z+h6CEQAAAPGlEIg4Q4898Jj4v3LmMbr3/hpdcM3VciDB5GmFGcMjxwK7BYgK8jwPPOgZSLJBizP6NrSKqux3a+hjoY8XYLXNLhj2x1NQbBu7wCL/aYmdVz9uGqwHmERhV+9aYjrWYh8X9TTD0gj6rKZ44Ij99s2aAQCs8ZMiRqhA/KQIQxCi7TfrBNU9P9tB64v3+SkZ7pOC5MStC/g3TryWP8bjtKS10vOs33G6LGS7kbzrLu3s70Cw2/VCn1ymFhf+ZQAAAKAlnRYRpx+he9QTM+6451HafuNBuvnq5JtEtnBhRj0VolkIE9NCjvaHlIj46QrlaWccA2edLK3k9jgtCERFdblITiGO5/GDE/xdG9RAlHJ9VesO3Wa3duZUNwe13cn1VhNcf15s8p+mOHk18t8tW6WJ9SLpfYrbjnV2heMXamZ0Grz+erHm/axEPo/bj5gJAGDN7TphfJLP+ARN+1tp+QaSDF5fdYXTKvXyMZviF1M+uSiwlYTQVbrJaqytUHV6IkYgo3eCAgqmgIQfghEAAADtRuqvvrHxpS9+Rv6RvfhC2rt3r3zdz44ePToQ+QQAAJDXrA+8TGPZFZpcPx74dCDu+iC7V8guddwKQQuO8iORI9b34i4TC5SzWD7ZdE04LwWicsh4SZUZGpGPfO4mnfTYBBP0IERUcCIMyjgA6cH3CyA9/P1iu3fvlv9G6c0YEQAAAFue6irRbIXlTG6jLdnKa9Rt2ee0QvC20Apfv1Obk67T3aO5PRmn6P8ghNsFI6jlg7ts0DIAAADgQCACAAAgbRkeuNfffcKZ9FYCHBRoztNnWK7fwl0W7Sv2yaVr4owF4V3e350kztgSm8M2sOAPSAAAAEA7BCIAAAAAIugtI2xaPujLAwAAgBcCEQAAANC33BYG7tSPTMEItIYAAAAIhkAEAAAA9KV+CDzEDSggAAEAABANgQgAAADoO70MQti0uHADDEHL6AEIBCMAAADCIRABAAAAfY0r9u6UpqDt26Tby8AJAADAoBupv/rGxpe++Bn5R/biC+W/AAAAAJtpx44d6hXRyZMn1Ssvd5mg+bb82+G/o9J06euwbvMCAAAwyHbv3q1ehWsLROzdu1e+7mdHjx4diHwCAADgmhWf3rogrDWC7XJx+Fs2mLYb1vqh23zgfAFID75fAOnh7xezDUSgawYAAAD0rc3u8hAn/aSCIQAAAMMOgQgAAADoK5tZobdpAcHL+JdDEAIAAMAeAhEAAACwKbiC705h4rRKSIIp0GDKp7scghAAAADxIBABAAAAm8pUkTcFAnrNlK/NyAcAAMCwQSACAAAA+kJUJV9vldCrgACCEQAAAMlDIAIAAAA2BVfy3Yq+HmBwX5uCAMwfCAhaLil6Pl16PgEAACCeIQtENGhxbIRGxhbFKzuNxTEamamov4gqM2L9kRlqvQNB5LEbwfFKAs67ZPi/z8OAz42xRdtftOSYfhu7zUf45+P8fgfNxndk69GDEWGBhiSDEG5wISjIYErLtBwAAACEG65ARGONVihP+eoKrXVYXh5f2qCNjSUaV393rDITKyDSV2zy3likqTmi4npCx2uLS+y867VBPs97AccnMW3fERzboRNVyXcDEu5y+usk2AYU/GkmmQcAAICtYqgCEZXDomY8uUzz01WaO4z7ZukbpVxGvQQAAOiSKbhgap2QdOU/bqsGUz4BAADA3hAFIiq0WsrT5J4Mje8vUr60amzC6zTvVdPYIp1Q77u8zY8rNDMyRp7WyI1FGtObB/NdOXd7almZRqFEVJ2jLL8f0NbYSavidCdR25CLyjTc99qbIre6RKjJs/2oPLvNn1U3FrmN1vI2eZfpZ+eoSiUq+JYJz5ubNueR55uaWYfnz+VNx5f/tuPhbe4d3Dw8OH9B6blkuu58cV5VPGlEn0fOueAu0Fk+kjmf9G2GfxaB54rhO2HkyZeYPHe3w9N2+Y+7//ts4t1fdYw6/exD9iHw+AhR55OJZx3PsYo6v3p1LJPZZoubX2c/eFvudyTw2Nqee9D3TJX8uMGCTrlBBptAA4IRAAAAnRmeQERllUr5SdrDd+gze2gyX6LVVrlf4sJroVak9Q1u4ium+ToV5qpqbge4sF+oqe4JYipPyrdlE+LyNFFepbUU3OC+OrdAtOysv17MU6kgCtBT/Ba/t05FsR8FXwUmOzdKZTlfLVMrBFSsg5UKMhG5jTK3IJlyKjY2ec/MHqeN9SLladrJh1rGNm+1hVXKRXTpCMofk+msTLY+x/IozWWdysr4hMh7rd6qpPF5If4paSfDiXqVpieCPxN//sLSY4mfV0rcfLCOzqeIbcY6VwK+EyaNtTpNustx3khUKn3nSth50MlxbztHxXmcU/NY3GMetg9B3yWbY+5XncvSFC0b07GVyrFM8XtRmcmKveT1238nuj33YDBsZjDCxNQyAwAAADozNIGIymqJ8pN7yOkpkKE9k6IS5olEOC0misuzahlhfEkUyNXrjmndE8ZnaTZuV4Xp+eY6mdl5UbXnt9w8Zmh2XrzTrFhXiHufFNf1grlYZjm4BUiQfHG5ma5sQVKtx7xb6Rcjb5P7I49TcP5UOp7Pcb+sYMuPe2fOM0YInxfTRbG+dgz5PMjtlH+YefIXkZ7aXvLnlRArH0on51PENuOfK3bficzskjbPnzdH2HkQ/7jz/lZpuqydoxmRP72WG/OY2+yDl+Xn6DddpuPNhNzv1UKsO/7JH8v0vhfNIMZxbX0rXf4ew6ZwK/imir6pZYJpuW7o27Jp4ZBk2gAAAFvVcAQiGou0IAq93C3Dldkz6S2oN+pUM4xpsDOXV686oFpecPeEmDcnm/JtNeKQSrK8u28YlyGTE+/WqB6jUjLatpF467eJkbf2tNsF5k+mU6W5rNv8mqcsNW+0ys+kSnVZw+LK0DRNzIo8uMEJveVMAE/aUemlcV4psfKhxD+forcZ61yJ+Z3gu+rNtLmpvU9g2p0cd7m/4nzQAw8+nRzzqH3wsNymX9vnKr9X8SR/LNP5XtQWxqggvrfluEGIBH6PofdMlXrTe71qHYEgAwAAQG8MRSCisbYiisS+QrEcw6BKK+6t8RN18VfSMjR7fEM2765xE3hD/3tIg+oS4puclu9aaxiuDOVztJPGaWLaCU406jWt5YytkPRSOa+ChO13p5Lepu13whmLwdu03/J2OevZcQ87Pp3uQxqfYxc6PpZpfi9Cgl2B8Hs8TDgg4A8K+IMRNq0XbCS1HQAAALA3BIGIBq2tVClfXG8rEHMf+erKmtNMmpvsGwq3PF5ALKYCdmaWjqv+9wtpjo4WsA9Bdx+belFp6zRvcQWlo5GtYWp1qqytEKmgA48dUVpdlOdK+53hEFHpdXpexf1MLPY7tjS26Yr6TsjzQlRktbveHCSy1slxj7u/Uct3sg8dHvOq08SnRbZISOg7n8ax7GSbyuj8cfHbTTSX7XCwyV79HkNPmIIRaQcO0CoCAAAgfYMfiGis0UrV2y3DJSuk1TmST/IUhVP5WE9tgDaqzFB4S+qdlMuLdZqPAq3QjL6CWN/fBNhTye163AUfdx88A9s1aHGKO2vvV/3eI/JsK27erfKWgKB0ZrTPlZuti8+9IJJunhdcMaqtiHMlvGl+m6j0rM6rBD4Tm/2OK6lt6udK1HfCQ6uoNhZpKqp/gs7quPuY9leku+jLb5PV8bHYB/34dHrMSwXtuDrnTz6p73xSx1Lfj062qeEBcZ1ghL59g47PPeg3boDBFGQwBQaSDkb4t4dgBAAAQLpSDEScocfuPUh33HGHnA7e+5h4J3mVw3NUDerzL/sMt56YML6kRpt3u2+sTshWE8G4qW+ZpkUlwOnysUoTonTcXENUbp0mwDxlaWVyvdW8Wg3c5n+8Zbd4tPj1Ys3ZrpauZyC7sDzb6DDv0XlLBqdTnlb5c9PJ6d0tuCuG+Ec/L/hcoCpVpydiB0Wi0os+rxL4TITo/Y6v6236z5Ww74ROVFSXZUVTLcsPdIjTNUOI/3027G92hevxgUKPj80+GL5LnRzzfLFMuQV3+QKV/INXdnl+JXIsffvRyTZ1HIxwt2/8Ger03IO+ZwpIcGAgyeCAzfb0ZZJMGwAAAIhG6q++sfGlL35G/pG9+ELau3evfN0dDkJ8jp5/z6/SzVcn34Ty6NGjCeWzHY/WvpBLvvIMW4t8tGF93vj4UwDYWprXrMqMd0DT6XLbb4R8Yoi7CD+eVB+002L9JrksP870uNXTQ+Kky10h410jG7Q4lqX6fPtYKE4F/yz9x3+eCZnv1W1rCP829e3ZBBy6TT9KmmUcgK0O3y+A9PD3i+3evVv+GyWVFhFnHjtGj2y/MZUgRKoMT98AAADonqiMr+ZaA5tuOK1YxrRxLDiAKR9bKuerFiXN5iDR67eIZRe0gEWE8HSJhyTRBiYt0+hc1txKxYADHNxCxdRriSv93378CB05skI/+qeH1LteaVf6/dvnv8PSTDs/AAAAW0UKgYgz9M3nT9Hoe3Lq7wHAd3u4OW92jkbLdnePAAAA7GVodkl/JOk47S9qAypThQ6L2vr0vLuMWH65qD2GOmr9lsbiFM2NTpNdZ6eodLmbzZLWpc3p+uZ2eQwlrq3yUawcNFFvMQ5AyJYH336cHqznaNe+XRRWYogKDsRlsy03TXdZ/TUAAAB0L/lAxJlv0vOnLqBt9Bjde9AZI+LgwXvpsejWjptnfEnd6dnER+jBUOH+7eiWAQBhMrlR9UpQT2HxDKbLA++S8+hhE8/6Ljlo6iiVlybUGxE6SJflcyGDq7jktVUPYvhc9CHat+9DdJH6c/cF4QWFJIIBNl0v/BCAAAAASF5Kg1WeokceJbrh4EG6/fbb6VevIXrkcw9QXc0FAADY6iqrJX60h9MSgR+5ms/5xk7lJ6Kolwae9aWGfFLRaDmk8u8XN13VymG+w6aDUYGATgIFttxtp5kGAAAA2EkpEHEBXXPD1eTeQ9h29Q10zQU1erSvm0UAAAD0hhyXgbstWLScqjWfEdtiWr8yk6W50XJiLfta6VZoRj6NREwLPE5FjEBHCLeFw7Ztp9Q7Dg4U9CpYgKAEAADA5kgpEAEAAAAmPIBjlrtPWFboR3Pe1gfG9bmlAg84GRiF0IIJcpoR74RrpTtOS+5glctEU2L91iCZ8bYb1M3hKwcOqFctSQcJgtJGMAIAAKD3kg9EbPt5es8Fp+jM99Tfmu3b0c8SAAC2Kn6M5QgVqGweO6FaJ++wDCeo7nnaRND66ikZ1TnKNgMCBSpRleay4rV8xIUWTJCTtn5kuprMLB0vT4ukDquAQ8h2faLGgPjKqfYyAoIRAAAAwymFFhHb6OffcwHV7m+NCSEf50nX0NUD9CANAACAJLldJ4wD2Y5P0DTVyNMLwzeQZPD6GZo9rgcDeOInVeSpuC5eh/XVsEg3CbsPOY/njKrwu901dGkEI0wBCQQjAAAAeieVrhnbrr6ZfvWa03T0jjvkUzM+98h2uvHm1pgRaeD+srbNTbvj3JEKe4a689z0tPORHFN+/cczzX1ytj3WfFRcO9X0Vz/o7iNX3cn2ofYp433Rn+uf9rmQ9vbjis5P9PdnWPXuNypZ/XaODazGIi2U8lTcH1S758diVmlualF8S5j4rkzNkVjBaWEQuX6nItIVn/yi58dZ/B4XSpRvzu9cWMVfDxSYggZJQDACAABg86Q2RgQHI/iJGTwdPHh96DPCuyYfVybKTXznJ6RZaEe4wjvmFtDsjC+lkI8UteXXcDzT36cqrayZj3JjcYFqeX0Id1FQXuUB0zhPPJVpulTwBAD6RaLHzXAu9tu51pafDr4/QynJ36geH9N+O8cGm+oqoQdRxeQG5vhYl0fd7hVO64fjnqdThK/fqfB0dxKtZLX0ClQrrvvyFc00BgSzDUZ0i9PRJ1dQMEJfBgAAAJI3RINVjpJvPC/oSm+PZz6f1/oc6xq0tuLvrJyh2aVZ7ZF147S/KNZfWUOFF/oYfqO2NB5bwdN1ojXpPSecwI+a9BmW67fw2A3HyTZeEJiuodtH3CCEk5cN+uUPmAMLZ85cKeeb9iOJYIQpqOAGG3jiNNA6AgAAoLcGPhAhmztn56hKJSrw3Rrt1lCrKbSaPLeN3Cbi7ojf7U2PZZPkgjYAmGF9Z9vebgW8nufuvKcbQUgXhIDl3O159sdwR9S7v+3p+I+Huzt6foOOZ9s+CUHbM4nKG03OUzFfotW2D+EwzVGR5ifV3wEyuVH1KkBjkca0vPqPn80xtv0cdLGOW0geeTumc9Fm++bzPvj81cl0Pes73xf9LZmeIT9BeXbYpc/cbQYf9+DvcvixsNm2w7sdPb/BabvkuqbfqIhzUmSuNU+lGXZMu8mjFPH7o/7QltEmq3wItr+FMLR6XemPs11/vkz5BAAAgGQMfCAiM3ucNtaLlKdpKvPdGnVLhQvDzuPN3Ls461SsFdoqIrWFVcoFNJeWd4jK00T5otMNQLtdUypMES072y57+tf6cGWjUFNNsnl7ATXqiOWqc1maomVnHu+LqJ5nfYX/7Mpkq7tCeZTmst4Kmed4iGNm6i4TdDz9bLfHovLm2El7JvNUWvAex8pqifKTe7hxcChejkZzWisJr8ZanSbdY2s4fizqGDObZcKEHbewPIadi7q27fN2DOe97fk7PiHSrNVb8yqrojot1tciRifqVZo2jGqXyPdHsTnu/u+y7bHo9rvFwn5HAn+jws7JgN+DoGPabR6D0mszvuTMV9N6Me/kxSYftmnAlrAZLRDcIEhYgCFqPgAAACRjiLpm6Cp0WPbH1gvcGZpdFpWB0qq3Ajy537rpqi5fXG6uN75fbLft8Wc6rUn2+GxIeiHLTet9dt19WVB3FNX+LmvdFcb3ay0MeL6oLJa145ER22+rjdiKs72ovLVkZudpurpCzaEiRMVloTRN8xEfEFd+CmK5ckDlnGVml7TjKY7fvK+CzUKPsWKzTKDw42aVx1DqWFuc99bn786cmNf6TDjgM10UyzfzVaHVUp5yUZEin3jfH8HmuHu+y/bHInzbludvB78j0Z+37e9GUnm0TU8R30857kUzXZt8xEwDhpqpws/BiF52idDzoKeLYAQAAEC6hjMQIe/aagVeVyYn3vU+pmy0bSE77ev5Hn/myuyhSVEQ5ybZvhuxXhHL5f01Pbkvitxf/yBmWRJ1Xm1+go9ii7O9qLx5OKO3u4NWNtZWqDo9oVUk23Gzceeut17hNOOARTMP3LzdJ/QYKzbLBLI4blF5DCW33+l5H3b+VqkuowQcdBD5nxXbc4MTnGZ+kvbE/BpZp6/YHHfPNmMci66+W0qnvyOBn7ft7wZLIo9x0pMa6skKrYBSZD5ipwHDwA0sBAUYglogmJaNS99GUMDBlUR6AAAAYG9IW0T0k4wz0Nd6kWoFLpj7uyS4bJcLopp9+6aQRgI9ZJ83vjtOctBKHqRS1HMCH1Xn9HsvUFlsKyoI4fSN9zYZn1bz+kW/5jHjdJnhW9qNOtXyOdqpAkYcnGjUa7LrTGfV8EGRxncr6vOO+3vQbR7jpddYnCIeu2W5rUlDWD66/Y2DQRNU4XcnnT8Y0YsWCWkFQAAAACDacAYiuDm56Q4rV6RMd0l7QY54vi6bKS+EteMPWK7q3JJu0e/4Bu2vK2p+XHG2Fzdtddd0dYYHqQy+016ZycpHzAWNleAhP3dRQTreajLOFWi/0GOs2CwTKOxYWOYxVND2uzzvM3smZVeMCkeGVNCBx44orS7KJ5p02hogjtjHPcax6Oq71Snbz9vmdyPJPNqkV5mhrL8LBrPNh+1vIQy0Tir0HBhIMgChbwsBBgAAgP4ynIEIUdCd5wHwPIO1uU2J90c24W8T1X89jCi0+5shGytuUcuVCtr8Cs0USpR39yVof2fUAICm+Y1FWvSlZy3O9qLy1iYj+8qXSs4glYYjJdNaKOVDWkuYaBUk2bfd0Dck7Bi7bJYJEnncLPIYdi4GHetOz3sXd1WozlFBbGbSjQxxpbO2QitViy463Xx/XHGPe5xj0c13qyshn3fU74F+TJPIo+3vVPP4aF0yXFH5CEpD7PsYnqAx1NwAg22QIclghE5viZFWGgAAAGBnaLtm8Ojy68Wa7I/s9lVemVzXBqWzpAZbk9vxl6JtiAqb0wy5lQfjTfyI5fLFMuUW3PkFKnkG2HP2tzyt8uluI9eqyLfNz66INNXMDsTZXlTe2oxP0LT4L3yQSq7wuNtrTcaPSFSQlrnHh7s8P7DB0O0h6hgzm2XCBB43mzxanIu8/UTOew/uiiH+0ceC4JYr4jOIGsOj6++P0slxtz0W3X63OhL1eYf9HhiOadd5tPydqsyI4yP+5SeNOMuqySYftr+FsCXogYDNbq2gp48ABQAAQG+M1F99Y+NLX/yM/CN78YW0d+9e+bqfHT16dCDymRQekHEh121lEsLYHGN8DpsjzeOOzxR6Yatds4Iq9qb3e9FCIU6gox8CEVvtfAHoJXy/ANLD3y+2e/du+W8UDFYJAAAAPWOq7McJFsRlG1zohyAEAADAVoFABAAAAMQWFDzQK/RpBhj8OC190nGewgINCEIAAAD0FgIRA4D7XaPpeLpsjjE+h82R5nHHZwrQHVOl309fJq0KvykPpvfcgIR/AgAAgN5CIAIAAAC6EhWMMNHXSSsYwGl0kjcAAABIFwIRAAAA0DWbwIIbGOh1cADBCAAAgP6CQAQAAADEZurWoAcZbFs5JNkaws2TaZsIRgAAAPSPtsd3AgAAAMSxY8cO9arl5MmT6pV5PtOX6Ya7fdP2ovIGAAAAybF9fGdbIGIQnq2LZwADAMCg2CrXLFOLgyRbO4SJaoWxmXmLC2UcgPTg+wWQHv5+MdtABLpmAAAAQMe4kh/U7SFsXlL07Qel1a9BBwAAgK0KgQgAAADoiG2QIY1gBG8zznY5GIGABAAAQH9AIAIAAAC65lb0gyr8aQQjTKLSCcofAAAA9A4CEQAAABCbTYXfL24rhiBR20giDQAAAEgPAhEAAADQlaAWBr1oeeC2cPCnlVTQAwAAAJKHQAQAAAB0pdcV/jiBDwQjAAAA+k/ygYj6A3THHXcYpwfqapmUVGZGaGREm8YWqaHmxdVYHKORmYr6C8LIYyWP+QwlecT48xxb7PQTdDjnRCtfNtvEZw8AEC0oGOCnL8evbdcLEhVYQDACAACg/yUfiMhdT7fffrt32vte2tj+Ybo6p5ZJXIVmREW4UCvS+sYGbaipPDpH2YQrx0OpMtN50KaxSFNzRMV1PuZLNK7e7hfjS/2ZLwDYgvi3Vg+WGwKenoC6/3fZYv0muewY2cZy46QbFMwNruw36LkvH6HHv63+bNOgxbERson/umnYBCP8AQkEIwAAAPpHD7pmnKHHHq3R6Ievpu7ugQSrzBSolC/S+vFZyqj3GFdCy9MlKuDudspGKacfeAAA8BGV7dWcFiwv03Sp4KnUc2usVkB9nYo0R9nm9St6/Rax7EJJvY4Wnq64xq4SlbV0R+eyzaBBVGWfAxx33nmMnjit3vBxAiBZmquqNzoQFmDQ82dqKQEAAACbI/1ARP0xeoSuSbU1xKoob03Pe4MQrvH9RcqXFtRdIfeui9OCwt9kX78bdEK9r2t1QeBJv9MUvF0dpzG2WJHLutuRhbnGIo01t9u+rjddMXkCK5ym766X3J67HTdvzr/ONlrLy/0uiANY5dYj2rY9d8DMd9VkvrJzVKUSFXz5Cs+z3fFyebbluVMXte/uMTdkXmPz2QMAdCdDs0v6dWqc9hfzVF1ZU79pFTosauOta5lYflm/fkWt39JYnKK50WmaVn+Hi0qXg/p6q7JxmhAbLq0G/2pzYEBOf/z79I0dv0e79u0iYxFAXGcKpWkqc1BFvRUlKJhgG4wAAACA/pB6IKL+fI0ueM/Pp9Yagm/VlEQRZiKo7X0mR6OiqlzXape1hVXKaV0JuCLq6dYxX6eC7/YMV4azK5OtZcqjNJf1VqD92zWpzi0QLTvbWBeFyFJBVH6n+C1+b52KeW8LDpnu3Kh2N0osUyuEN8k1KBVkInIb5ekqzU05FXrZdaEsioDcooS3vyRyzpX5Qk11t+D5k85GfDKzx2ljXRRYxfGX+eN1Bds82x2vLE3Rcms7vjt13bL57AEA0pDJjapXQqNONf+1zHD90nnWd8nucuL3d2lCvRGhg3RZPrdTvQqp6F/0Idq370N0kfqzzfhS6O9/EAQjAAAABl+6gYgzj9GjtVH68NV9VgCY3E+zzdtK3KIiT8Vl7U6TKBxx3byF7xiRb5n9MmjguSnk2W6A6fnmMpnZeXkXyHMnal68U6trd8h4/AW9oOberVr1BEGi5IvLzXRlK5FqPeLOv9bdYnw2er+aYuTZ6niV6XhzofY7dd2x+ewBANJR4eZ8oznn9+dEnar5HLWq92wn5fLqpYFnfalBi1NzNFqOUbmPm65qxTDv+/Hmin5UZf8rp5IrCwSlFxaMAAAAgP6RaiDizDefp1Oj7zE3ydxEo/qABvJuUPsYBzv1UphsdVGluazWhN/Qp9Wz3QD6XSRHntrecsl0DeMvyLtVNarHqIy35y1k/cwemuSWGWI/Yzc+iJHnjo6X3E5CbD57AIAUcMsx2S1BtSQLUzP8WJvWr8yI69JomSw2aaWVrtON7s4776Q7X76RGqd/i65U3S/8TAGCbdtO0VcOHFB/JQvBCAAAgMGUYiDiDH3z+VM0+p6UwxA7c6IqH1KplpXNkMo+3w1SL8Op7ge+KakCX3/J0OxxsX/rRapx15GIMRwGlvVnDwCQHO4S5nRfs2u54A/aGtfnlgrczSzwouSOyeNO0b/rrXTH6bdOn6Z9+/bRvn9E9LUjR+jLz52Vc86c+WP6/TvvbNuuG5AwBQo6wcEFfdIFBSP8ywEAAED/SC8Qceab9PypUUo7DkGZWZrnMQ8Om4tUlcNzVNW6Q7QJCGScqGtV1KhgR1qC0g24k9+UVAVbHNvjatyKBdu+EJ3mOUDV30k5qMWFK86+23z2AACJcQbqLVDZPDZCW5e5E+T9OQpaX7zPT8lwBx2WU6HVkk82bRunJU8gXVs/Ml3Nue+lf7YrR6efqJHzNM6L6EP79tHp06fbt5sQU0DBFIwICkgAAABA/0ktECG7ZVywjd6h/k7T+JLzGDP/YIhyIMKopq9uIEMN3ijJPrDqNXOX8QxOKQp+M75nrSctKN0pHoRhvyrscV9ePRBToRlP5i3pBVGx//4uGTbdKCSrPMcgPtdWXpx9yye17zafPQBAQtyuE+7Avh7jEzTtD4zKAG5rIMng9VUrNk+ggZ9EkXcGHQ67Blqkq1fmZYX/1FfowIGvqHdaeLleVvxN6fmDEabgBAAAAGy+1AIR3ztzKt2nZXjwnR71ZIbm3aCQu04+40vqaQzuuqsT8okWOn66RHlaPaZSTllaye3RBglLB6e7Xqx5051c9w7geFwFYuT8VZqQT7KIQQ28KdPgWv/OnOqS0UovrBzrF51ne/limXIL7nYKVPIPXtnlvtt89gAAXWss0gIPjrs/6MeUH4upB0Z9AdzI9TsVkS5V6DnVDcOp1LcCwkFPw9iMgIROBksQgAAAAOhrI/VX39j40hc/I//IXnwh7d27V77uZ0ePHh2IfAIAAMhr1gdeprHsnLHr2HS5Nd6Q05LPec1PDWq2ZuDHKlus38JjQixQbv241VOPAtOlBj36hWP0xGnnrwMHDlC+uE7/v4+dJ/92K/xBgYdm8GKkQGTMJwuf725bDy6Y0huW4APKOADpwfcLID38/WK7d++W/0ZBIAIAACBFg37N0iv9/sBDWHAgqcCAKS3XMAYkUMYBSA++XwDpiRuISPXxnQAAADDY4lbsexkIsA1OAAAAQH9BIAIAAAAiuZX+oIq+HhRIKhihp2WTLgAAAAwGBCIAAAAglE1lP8mWCLytONvj/CEgAQAAMDgQiAAAAICOJBl8sBGVHgISAAAAgwGBCAAAALDmr+jHbb0QJWpbvQ5+AAAAQPLanpoBAAAAW9uOHTvUK8fJkyfVK4d/vsu/XCf0bevbM6WZRHoAAACQHDy+EwAAoA8M2jXL1OIgqLuDvmySXSLc7ZpaX/gNW1cMlHEA0oPvF0B68PhOAAAA6Ejcbg8cBHCnJESlb0onbp4BAABg8yEQAQAAAG2SDjJEcQMKNsEIf54QjAAAABgsCEQAAACANa7096riH5aOHozoVbAEAAAAkoFABAAAAHgq/TYV+6SDEUFp2gYjAAAAYHAgEAEAAAAevWrx4IdgBAAAwNaAQAQAAAD0TYWe82HKy2YFRwAAACB5qQUi6g8cpDvuuENOB+99jNIuPlRmRmhkRJtmKmpOgxbHRqj5p4Gz7gyFLAIJaCyOeT8jdczbPjt90j644M+4Xfs2x2ixoWYmjNMaS2vjijx2YScxAEDCNrvij2AEAADA8EolEHHmsXvp/too7b39drpdTDduf4Q+90BdzU2aE2goUJk2NjaaUzlXF3PsjC/xOks0rv4eKpUZGhlbtD4WHt2s6+F8Rtm5USprn9FGmWhV1K2d4+9M5Wmx+LT2WS7xp9LZZ5wvrjeXXS8SzWUTCEYkdkwAYMvh3w89QGoILnqCqP7fGov1m+Sy9r95brrbt2+nI19+js6q99sq/mK7R458mZ5zF4gQuj9NwTcMgoIRCEgAAAAMthQCEWfom8+fotEbr6eceid39TV0Qe15SiUU0VijlWqeivu9YYTx2VnKqNewuRqLUzRHRVr3B3vGl0jGGaIk8BlnZpepmK/SyhpCCACwGURlezUnfgfdYGqZpksFT2sqbvlUqPFvJc9fF7+ac5Rt1s6j128Ryy6U1Oto/nQ/SE/QyuPfVnP1in+DHn15h/OmhfD9cTiBiizNVYl2X2AOMKCrBgAAwPAZ/DEiMjkapSrVT6i/Azl3XJw7M967RP6m9e7fnq4EEXfBnXUqWhrq7k5jkcbcbRi6f3jS4MlTSKvQjP+Oltyeux33LpJ532QBryAKo1VR+NO37bmrZr5jFriuEJ5nvwodFiXM6fkuAkPWn3E84fvhHlv+DHj+DC2EHBMPz2cuJs+5E/6ZueTx19ZPeNcBoOcyNLuk/w6O0/5inqora+r3wf9bKZZfLlK+tKB+H6LWb5HB39Fp4gZm0drT/fDVb6Ht9WfaWj2cePQxeuLtueZNBlNwoCVqfwRxLSqUpunp00/T7x06pN5sBT78gQZ/euHpAwAAQD9LIRCxja7+8CjV7n+g2QKi/tgjdGr0Pc3CS7KcwlipEN5Pv1SYIlp27iSVp6s0NxUeWKjOZWmKltWdJ/OdHL/q3EIzjXWVpxGZrNpGvkQFX4Xe211BLFMrRFTs2wXtm+zywH0d8uqOFDc/4EpyoUbFdZVmedLZiI9xXSF2niurVBLF4Qmblg+B7D5jG6M5p0hsux+1hVXKyWO1RPMBx8SvsVanSff4Bpw7YecjByFadxHFNF+nAt8uBIChksmNqldCo041/29lRBDWs75L/MZP8W/b0oR6I0JAuk8e2Ef3N7SK/tnn6GtPvJ12fejn5J/f2IgIAtjsz/gSnT79W3SR+tPEFIxAAAIAAGDwpdMiInc9/eo1p+moGqzyfrqRDl6fThiCZWaP04YzCIC8g2yqrOaLyzSrbiWN7y9SvloPv8s8Xabj7gqmOzkm0/PNNDKz8/JulOdu0Lx4p+aOa8B3i4iK63p3BTedVTHXXux9E0VBVR8XK8w2142WXJ7jsvmMw1RmuOmvWyiOsR+T+2McH0dmdklbx/+5O4I/swqtlvJUXNbufIrCuhw7AwCGSmW1xNFR57t+ok7VfI52yjmunZTLq5cGnvWlBi1OzdFo2TzmkbGlQUS6TsX/dfqPv3INvX3Xh+gD207RVw58wZkZxmJ//EEGZgoy2C4HAAAAgyOVMSIeu/cgfe7Mh+VAlTz96rZH6eDBVguJVGRm6TjfPRY1Nm7N4L+z7d4Jb6lRPaQum895i0/OnZxwbetQntrecsmWAlpAwCXTCc+bX6x9y+yhSW6ZISrzMRteJJrnjkR8xn5yGdW9wWlhoArnMfaj/dja8XT74O4cPoGfmbyL2J63nWG1EQAYOPwbwd0SyhYD5dQMP66m9WXAdbRsHHvHX5l3AxJnLthNhz7+fvWul5uuu91f/kAylX/T/nzlwAH6yiln+6ZWD6ZgBAAAAAyu5AMR9cfokVOjdKPWAmLb1TfQNRfU6NHHelCQGF+Sd84jWy9sWRmaPS4q8+IY1bjrSNqPLd2Zo3zSQQrLz1h/asbGcb1vdZqcMSWyK5OtrhVxmjPwXUT1EgCGE3e/crqGmVsu+PkDl8b1ebwFDrgGBja+TY8fOUJHmtPj4p2WETcwoVX4ZbqR23XH0XGn6GsKb9cmsIBWDwAAAMNr8AerNPH3Q+1A1b9y0F30TgVV0APuiDclVVGVrQuccSsWbCM2neRZtsCo0tzhhMMd3XzGnR57G6pfdFkLfDTqNfXKQkDeTtQRngAYfM4gtc6jiA1BiLZudSfI+9UPWl+8z0/JcAfSlVNBXLPEb29WvJatxy6iD+3bR/ua04daYzOcfp3+Qr1kZ878gHb800O0+4ITzlMyQrc7Tktu0FVOWr4i98exbdsp9SocWkUAAAAMj+QDEbn3iKpcje5/oNUR48xjx+iRUxfQe34+hbsbPPiir4l+Y3FBFJS6HCCxVNC6LlRoplCifHF/e8GxU5lZmudBCrP63SOnfy810+H+tHol3slHbHphsDLT1iUjtPuBvq5Vnv24BYbzmDnTM/H9eTFK+jPuaD80bYVrPy2QIAeOixFEcPOmD6YqR5ZXrwFgYLldHIwD3Y5PiF80XxBSBTbd37ng9VVLN09AQPzuUt4ZmFgsb2pdILtAfOAtlKPv01n9CRnij++Ld3/uonPpvf9sH50+fVqbnvZsN5DF/rjOnLlAvWqHVhEAAADDKYUWETm6/uCNNFq7Xw5UydPnHiG65ldvpqvTKE/wnXGu5Dbv1sRr8hokXyxTbkG7A+QZvDIZ/GSK9WJNjtfgpJOllcl17yCZbiVezl+lCe6SoOZaGd/vPK2D1+fK/M6c6pLRSi+wLOlfl9+KzLMJ3zFTT49oriemhRztt/mQUviMO9sPwXBMPDKztCzH1FTb5YdjxBxpcnzJd6xWJ+RTWABggDUWaYEHog380RunCU8Q0hccjVy/U+P0lpP76Jpf+Y/0uqz0n6XnvvYE0QdHjU+zsG29ELU/CDAAAABsbSP1V9/Y+NIXPyP/yF58Ie3du1e+7mdHjx5NNZ/c/3YhZ1EpBQAAiCCvWR94mcayc8auddPljWZAWD6+120BNa21fuCWYRbrt/DYDQuUWz/uefKPv3uDGxBw0z106BBRbhft+9BFzXn6Otu2PWXcbpDA/RFa2+XxKx6kr7z/U5EDbW6FAEbaZRyArQzfL4D08PeL7d69W/4bZTjHiAAAAOgnGfXUH8OkV765tVZznj7Dcv0WbonWHizwV+TdSr6brhw/4kPethC8jjsFbTdI4P54OONX/NaV3iAJ22pBCAAAgK0CgQgAAIAtJKhC3+tKvykNzoM+AQAAwHBCIMKA7+CgWwYAAGwFaVf4w4ILtgEPtIYAAAAYLghEAAAAbDH+ir0eIEiq0m8KPJhwemFpIggBAAAwfBCIAAAA2ILSrODbBCD83ICEfwIAAIDhg0AEAADAFtWrij4CCwAAAKBre3wnAAAAbB07duxQrxwnT55UrzqT9PYAAABgcNg+vrMtEIFn6wIAAGwtnQ4iadLJeBPuOmgxAQAAMJiOHj0q/7UNRAxk1wx3JwEAAPrdIFyz/AGATsZ4SMJmpdtPUMYBSA++XwD9A2NEAAAAQCKtERBIAAAAABsIRAAAAIDUbTACXSsAAADABgIRAAAA4NHrgIKeHlpVAAAADD8EIgAAAKAJrRoAAAAgbQhEAAAAQCpsWzfoyyEQAgAAMPxSCkScocfuPUh33HGHnA4+UFfvp6MyM0IjMxX1V29x2mOLDfVX+99+Mq8jYxS8SIVmRjZvfwAAALrhDySgqwUAAAD4pRCI4CDE5+iR7TfS7bffLqZb6JrT96cejEhEZYZGxhYpOIyQlCqtrJlTaSwuUC2fV3/1UM/2HQAAtpqwYAQCFQAAAFtP8oGIM9+k50+N0o3X59Qb2+jqG66hC2rP0wCEInoin89Tde4wtbd5aNDaSlW9BgCAocIBX27x5k6Glm9Oqzk1+YPDFus3yWXDWt95haars9yut1XEWXruy0fo9//4jDfoILZ155130pEjR5rT9v/9KTUTAAAAhtUPf/jDFAIR3ztDp9TLpm3baTudptM9uenRoMWxEZqpOP86BStfoclTmHPmyUJYoURUnaMsv+8W8BqLNNZcVkxJtBqYnKdivkSr/jJk5TDNUZHmJ9XfmsbimJZnMXkKoNydw7ePMt8zKtgRfkwC991wnAAAoBPi93c1R+sbG7QhpzJNlwqernz8O1+oFdUy6+JqIH6Tm7/10eu3iGUXxG+6pfB0dfG2y8GIbz/OAYYVeuK0elPgYIScLthNlNtF+/bta04bS+NqKQAAABhGHIRgyQci3rGNLlAvvU7Rme+plz1QKkwRLTsFtvJ0leamVACBK+iFGhXXVWGu7NT6x5f49TRRXhXGVGGosVanSXfZ0AJaHDtpz2SeSgveoEZltUT5yT1irhcXErNzo1SWeVD5qBXC74YZBB0T474HHCcAAOhEhmaXZsX/XeO0v5in6sqaug5U6PBclabn3WXE8stFypcWVBA4av2WxuIUzY1Ok/hVtxCVbku87QqVGbrioyfp/Z96P7ltJHVnz35fvXJgkEoAAICtI/lAxLafp/dcUKP7tTEh6g/cT8+NjKi/eiNfXKZZVWIb3y8KVdU6nXD+FEYp55bmxmeby5lkZpe0+aKANi+KYLV6W8EvrszsPE1XV6g5VISo+C+Upmm+LTNcSCQqri+JYqfLLSiuqhYPdsKPiYn9cQIAgHgyuVH1SmjUqSaq+BN6g4BMTvwKV6ke8EPtWd8lriVTHLhemlBvRLBNN+522fgSbWw4166vHDhAXzllDjRwAAJBCAAAgK3hrW99q/w3hcEqt9HVN99Io7X7m0/NeP49N9J7N7bTtneoRXpgtFmDdtWozpX+zB6azJeoMMJdFZw5UTzdIrgLQyLGaWK6NWhlY22FqtMTWrBBqaxSSQ8IuGRBUe2TpcBjYtLBcQIAAHvcCk78MDstEU7UqZrP+VrE7aRcyNjFnvWlBi1OzdFoWQ9cR7BKt4PtBnCDDjxtfOMLdOCjV7Sur7jYAAAADDW3WwZLIRDBcnT9wYPqqRm30/XvOE2naTtt74sbHhmaPb5BG+tFqhW48OOOo2DiPEozuzLZ6pfLXRgSwq0SSA5ayYNUEhX3d1vES1Kc4wQAAHHIcRlK01S2GBOhZogYm9avzGRpbrRMSQ2z4Kab9HZdmdnjznVVTs6YFwhGAAAADCc3CJHeGBEGZ775PJ0afY+xj+imyczScR5rIV+ihaBRGFWT1fLxVr/cRr2mXiVAtTpYneFBKidpj7/BAtuZo7yp5YLMm6GlhIvvcqmXXbE5TgAAYI0HCHbG/bFrYeBvzWZcvzLjDDgZGC1wAuvN1gcWwWWZbgrbNRunJQ70x+xyCAAAAIMp/UBE/QH63CNE11zdJ2EIUajy33DxFPLaxk3QggCyj2ySj9d0xpwolZxBKo0xhcwszfPAklm9cOc0k6XiflUI5Wa0YpnD7hKiYNhJFxJ936OOEwAAxCR+u8dGqEDl5tgJHm3XnxNU91xygtYX7/PTLNwnH8mpQCXia4d4LX/MRUW/2fqAJ239gHQ3Nrrcblwy8A4AAADDyB0bwpVCIOIMPXbvweb4EAfvJ7rx4M10db+MQyUKOk5XA56ytDK53mpuOr5f3vnncRFkASszS8vce4ILXPweP3Qiwa4Z0vgE8Rjk7YNUtvBTLdaLNSdfWr6PN9fhbhSqWaucv0oT68V4BTr/vocdJwAAiM3t4mB8RKW8Fvhav/kGkgxeX3Wl8wQExDVBXAXkk4/CfrxD0v3lQhfb7URSLfkAAACgL+nBiJH6q29sfOmLn5F/ZC++kPbu3Stf97OjR48ORD4BAADkNesDL9NYdoUm148HPoGIu1zIbhCyOyC3ftCCzvxI5Yj1vbjLxALlLJYPTbeN/XZbeJ0CUXlDC2iLdGbWaI/7SFK5f/IRUQHpbh0o4wCkB98vgPTw94vt3r1b/hulJ2NEAAAAgOrS0Gzd5kxuNzhu/VYedbtBOK0fvJXy8PU7FZ1uSmpal48sP5VjY8sHIQAAALYKBCIAAADSJgf+9XdzcCa9hwMHBZrz9BmW67fw2A32rRYC020Tb7sOZxwJ72bbu32EJgsAAABDBYEIAAAAAAAAAEgcP65Tn1wIRAAAAAAAAABAovTAg8sNSCAQAQAAAAAAAACJMQUhdAhEAAAAAAAAAEAq+LGd7uRCIAIAAAAAAAAAemak/uobG1/64mfkH9mLL5T/AgAAAAAAAADEsXv3bk+3DL0VhP5+WyBi79698nU/O3r06EDkEwAAANcsiAPnC0B68P0CSA9/v5hNIILfQ9cMAAAAAAAAAIjlzJkz6pVXUCsIHQIRAAAAAAAAABBbUDBCx8EIvTUEQyACAAAAYAA98sgjNDX1Mbr++j3i338p/wYAAOg1m2CEHwIRAAAAAAPmjjv+P/TlL/8Offr/2EH/8T9dTf/HXRn68v/1Ofq3//agWgIAAGDz6N0zdG7rCAQiAAAAAAYIt3x4/fU/pjs/fTW9/fyd9KZzdtD55/8D+vSnC+L959AyAgAAem7Hjh3qVUtQMIIhEAEAAAAwQJaXl+jf/MYH6JxztonpXXTOm3bIYMSbznk3/Zt/82H63d/9/6olAQAA0rNt2zb1yhEUjDAFJAY+EFGZGaGRmYr6q0W+P7ZIDfW3K2h5ew1aHBuhrjYRQOZtZIaCN91F2pUZsW3evjalsRMa3p+xRf8nkBK5f2HHzi+9zxH6nO+74D9HG4tjnvlByyUp+rufntb+2qbf+++Oc3zGKPgjqNAM74OeKf9vHr7sMETOnj1D5577dnFu/wyNnPOz9KZz/j6d86a/J16/nc4/fzu9/nr8vroAAACd8Acjgp6S4QYk3GngAxHjE9NEpVVfAbpB9Zr4p7pCa56Cq/P+9MS4+ru/jC9t0MbGEjVzxwVpQzAlHqfSMFIgKm/w9t2pTNO1epfbhp5J5FzYBH2Y78qq/l0o0+hctr1SPV3Wviut5dIKFrR996MkdVwbizQ1R1RcD0m/bz7DKq14f9CbGosLVMvn1V9M/O6t5mhd+/ymS4XeBUYBUsZBiL84+yPxSlzf6U3i358S//6k+PdN9Prr/5POO+8dvFgsTsDPN/UggCeDoR2mYwoc43sOANB7/mCEjcHvmrEzR3mqUV2/7jTWaKWap3y+SvUT6j2m3s/tVH9vAY3FKZqjoiiQ+ysZ47R0fJYy6i+ArWJ8Sf8ujJMTy4wqBIvvy8Y6FfMlKgzdnfVRyg3AD0E+n6fq3GFDIKhBaytV9dqVodkl/fdtnPYXxfora30VFAPo1NTU/0af/vSjtLHxl/TGxuv0xhvfEdPL4u+z4v0v06/8yj61ZEyeIOyABPD0PK8XiUzBZQAA6KmgVhG6wQ9EZPbQZN57p6yxtkLV6XmaH/VVME7UqZqfpD1aobstmu65erlNkFWz35EZKqs5LarFgeFOqby74Nmesx39Lf1OgN6VQa5bKJEoeVM2IF9OnsObKx+eq9L0vEXAobFIY3J7avLdAXXyVtHSVfvhWc98t9hzjA13Vr2fgb4/7cfftP0g4Z+tK+hYummHHGu+U9zcvnee3XkVsm1N2Llgt49e/nWcVdw8tR/r4M9HCDlv7PMdvO9S6LkZ71gGyVtFJ0Xldt7UAqvF/Q579s+YX+9xdtdzhO9T2HH1Czs/5LzsHFWpRIWA7YSnFX7MY33GQuTyk/MyENQWM6oclsHW+Un1d4BMTlwQAIbE6Ogv0B899qf0r2+9l77//Rfpb984Sd/7/jfpEx//t/SWn/x7dM0116gluzGAAbzMLDk/08G/iwAAkI6TJ0+qV46oYMQQDFaZoT2T4kKpNX04Ua/KioXstqF1P6isigL1aK5ZKeeCb3ZuVGumvU7FWqGtQF5bWKWcarpcUO+5KjPZgBYH4hLuS5/bhIsceC6QnFdTVxHZVLss1s/ztsXrpdYypcIU0bKT5/J0leam2iv3kkxvmmx6ojTW6jQp95EncRzEXmV9x6E6t9BMd10UTkoFUWGQWVHrGO4WV+eyNEXLgduVn8HKZKsJdXmU5rLegIN+/C12RbL9bKOOZeB8rhwXaqpJu5jKrVpQUmm7gs4F23R0beusFymn5jH/sY76fMLOm9B8R3zmOptz0/o74VeZoUJpmuZnLZsEmFpg+USd88zmnA7ap7DfBl3U+ZGZPS4//7z4jZDLGLbT6e9Q7M/Yavmd8re+tOD9bPl3PT+5R8wN5//9Bxhkt9z8v9Fnpv8JXfuun6V/PXU33TD+G/Rrv3InvffvvJn+7Lmn1FIJ0b83CQSGZYBTW19vuCrn+X4v+ffBm040u+AyAAAkLU4wYggCEepOV/MuZYVWS3ma5GYP4xM03Rwngt/Xx4fg1gLcN1qvCGRodlkUzP13PCf3k6mewhfMQk0U0IO6OHClRRunggvC00Wx/WZwwslr3OtlvrjczM/4frG9at1zIQ8jL+huAUC7652ZXdL2Ud359Y8hMT3fXCYzOy+qL/yWu+9B65TpeHPD7vFdUAUT9Rksa8dvfH/7Xc+A4x/M/rONOpbh87Um7eOzarnk0g4X4/xt4nWq4iPR1smIfLc24DvW0Z+P1XnjEb1NP5s04h1LtzWCmBZ4HAH9GEbI5MSnHiH0nFcszunenx/xBOcv7mdsv7z83dHH/hGVogWLQBL/7nHAqRwQtAEYJP/1v/5Xyr77XNr57rfTP/rgP6R/v3+KvnjgE/S5//f/Sjddv5vevPE39MJTf6SW7oL4fskxZPa3vjfdBoab5SY36Dhfp4K4LrnabuCIV9z1yqplJ4sbXAYAgMSZnpBhMhSBCBlwIFVo5VYAze4XOynnjhPRqFNNbx0gWwsY+kbLiob3jueooQN1bUEVbMPGWVDdRpzGGhx0EOnPiu27BWlPXu215yf8Dq1O3gXli7+8E+rlCVJwc2yf9jsM0UGUtnX0ipz8DEQhJavSlFOWtDKJZDr+obr6bC3ny8/WadLuKYMlmHaoGOk0yXXCW8h48mT5+USdNx6W2/SLSiPeseTxHlQheJloSmzTug+0/B0JF3rOK+35bdfz8yOmwPzF/YxjLc9jerS64jnd8CZCA0lc8XFahsQIOAH0sSNHjtDHr7uM3vwzF9BPnPsuMb2bfuK8v6emd9PNH/vndO+/v1stHVOp0PoeynjCcU/QtLvAsHPzxRt0XCJudNXkuYEkyLG9Ilp26nkW1wdPsB0AABJz5swZOdnQgxFBrSKGIxAhC6d8LWyIeoKoJjSbETrdNrgrhCyw5nORzXfjiSrQt9KXFRiZvlOQ5uAE55WbFGvX+GRZNCN3OHeIvU2j9ZJBmlSzcN/U0Y3LxD/fMKIAdlzkdb1INe6iEnP8isER9vl0et7E+cxTPjczs3RcbM88CKKBYZwZMIn7vbZfnis2JD8vvlPqvVvr5TQPLxAPZIeKCQyHs2fP0l//5V/Q+eedS29+6zYnGHHeu+gnzv97Yno3vfncd9Flo++nxkt/Sn/7479Wa8XQHPixTNPVOTps+GHsODAsA7ntAdKdOf22SPxgYyvPPK1TbkHky9dKAwAAuqMHINyARJzAhCkYMSSBCOdCVl05TIe5CZ8WOne7bRzmcSP0Sn9QJT3gQuk3On+cnMGZwwdhy+yZlF0xKlxiVulz08PS6qJsbmhzZ7RjctCmqiizR1yQVWsRvXWHDOgkQB+7Q9Lv1FoHSqJ58tvlZxsLV2S5eWq+RAt8IvQq7U7SiXu8o5bv5LyJm4cUz834KjTDd9simgiHnvO90qvz0CTp88xPtUZaneFBKoODQnL8nlFRQekoqgnQnx588EG6Lv8+Ouen3kbn/PS59Ka/83Z689suoDefx0EIMfHrv/t2+uAH3kuPP9w+vLa9cVoqi7JKQQ+ydxkY5kCuehmGy0jOAJmqW0Zocwi/gO5wAACQGjcgsWPHDjm5/F00/MGIoQlEyAp/tUQl/+M5VbeNkjtuhMutpHsGRGvQotMh0uruGXdzcIIRIXfDuSl0dY4KYrPN9LngXVuJbm7IYvULbze+5Dx+K3qgJ60iIPuF2hQXLIi0WzcmnIpc3j2+QZ/BTLxBqXgdTx/SBD7bSJUZb5cMQQaV0kxbPxc6Sce0jvisF3370WT1+VicNzb5Dv3Mkzw3K7ToKZ36zskgIt2xkQKVpsvRrXXCzvkkhf02JH0exvkdivsZxz4nnObgpZIzSKUxDiE+rwVuAh7YWgJgMH31q1+lq993EY286c1i+kk65yd/ms55y9vozW/bTm9+68/SOT/1d2nkJ95C1/2jPFX+YE2t1SE1VosMsrNuA8MBQUcetNvD7Z5RseiWEajHwV8AgCG3bds2OdnggIM7hUkwEHGGHrv3ID1QV39q6g8cpDvuuENOB+99TCyZAnmXTPzb1mza6bZhuijxiPDrxZrz6Do5ZWllcl0baC4aByPK04axAppU+nq+OK9UjW5uqAoBMn8dNzN0+sOXR+ecx++5U3aORt1+lKIisCwDKmoe9wtNqPl7vlh2mknKdJ2KnH58+TNwj1/zM8jZdldx7s64n5teQUzisw0lClROl4z29FNJ23AudJJO2/HOroh9UTMNQj8fm/MmIN/Wn3ni56bY2ZWsSpenAtWKhmOm9znmKVuneb77Z3F3PeqcT4TFb0Ni52EHv0OxPmMh7vJOgDlqQDoObrjba00d/5QC9IFXXv4O/exPv0Ebb/wtbfzt39Abf/NX9MZf/Q/62x/+Of3tX36fNv76L2njx39No9mfoz959lm1VqecoF91bkprXdBFYNgNOupPNZKDS6rXTap7xoJFt4w2TsC1uZ4MIkc/PhgAAOy4AYk4gQmdJzhRf/WNjX97591yuv/++zc68c1jt28cPHhQTse+qd5UTn/tno3b7/naxmnnr42v3XP7xu3+hWLqNJ8AAGkqT9NGvriu/gJwNK9Z5ekNcdltTdNl530Nn0PN+fnihudssli/SS6b37A9HRNL12h9o5injfbVnPc73+5wCirjvPzyyxv/6//roxtn/vD/3Pj+/31k4+wfr2z84IUHN/7Hicc3/vJbX5fT/2g8tvGD57+y8fpTRzcmrrly4y9eO6PWjibPgbbPQH1G6pxYL+Zbnxe/x+dG83wxfM7rxY285zxs/8zlNv3ptq1n5smPts0my+3A1oE6BEB6+Pv1xBNPbHznO98JnF5//fXm1H2LiPoDdH9tlPbevpfeu8HXAF2dHnvkFI1++Gpy4iXb6OobrqELao/SY6k0iwAAAOhHDVpc5cfFuoPqOd3m9Ce2yMeMNh9t6H80YvT6LWLZhYgn2GiSS7cdP7WEW7i03zgX2x1T43i46dYKXbT+G35f//rX6YrMO+mN/3mW/vZ/vEY//uGf04//4hT9+OzL9Devf1dM36G/OfuKeO9VMf979IGdF1D1EftxIrhlUnurLzUws+qO0XzyFk/83vhSc567rGcTGR5HSX/yhtqeuw2xsNymP13LgYE9+dG22dSWPgAApOnkyZNybAh3CtN9ICJ3PR08eD3l1J8eZ07TaRql9+gzt22n7XSKznxP/Q0AADD0RAVsqdW3npuf7y/yIMs8KB+r0GFRW28NhiqW9wy6F7V+S2NxSlTwufOKjeTSbSOb3fMTUcrteVGPZSw3K41uuqvaWCGge+aZZ+iyd/4U/fh/fJ9+/MMzKgjxSisIIf7loAQHIn78g1P0C3//Z+iJxx9Vaw8SJ5CW6lPFAACgJ/SghD8wke5gld87Q6cu2EbvUH863kHbLlAvAQCGCN9RTHw8CBha8qlOLjUQoGdgPh7smJzHPZt41nfJfvujooI/od6IkFS6Jny3POjRqaYnKMh02wczBMcLL7xAl54/Il+/8Vc/pB//4DT9jWoN8ePXviMnp1XEy2LeGbrs772V/qT2vFx+UDRb0IymMLYOAAD0lU17asbp0+ibAQAAW1dltcSP23Hu+sqm6Dnf2LE7KceDMAfwrC815EB9zYGIbSSSbgfkExRMggMgW90555xD//J3Hqf/52efbk433v0E7f13f0T/j8Nfk9Pef/e4eO/rct7HS8/Sm952oVp7MMjuIf7uFQAAMJQ2LRCxfXv8UTYBAACGgRyXgbstWFS4aoYmAqb1KzPOneSk6nC26XZEPumqRAVtTIjKTIHsR7bYeo4ePUpf+7+fiDV96fe+rNYGAADoL+kHIk6dIe9wEN+jM6fUSwAAgC2Gm59nuftEULcFn1Hfs6eN6/N4DDzgZGCAwH3csTvNRI7FYJVuB9t1ZGj2uDPwpbvu6gSPJZGnXMgjhQEAAGA4pBuIyL2HRuk0eXphmAawBAAAGHr8pIgRKhA/KcIQhKjWydsr4QTVq+qlFLS+M7gfVeco2wwIcOuCKs1lxWvZ6mCcljxPF9DW7zhdFrLdSN51l3byeBWj5It/AAAAwBBKuUVEjt4zeooeOfYYObGIM/TYsUeIrrna/JQNAACAIeV2nTD2fx+foGn/QI2+gSSD1+fWBXowgCendUFxXbwO60bRVbrJaqytUHV6IkYgAwAAAAZV6l0zctcfpBu3P0L33HEH3XHHPfTI9hvp5qsxPkSauA9vPz2L3RkF27a5brI4bf159/6/0+Dsr3fq5uOIf/ycu5dx0zQdq15/bt2mmfSxt+WkO6Yed2iimq9rmfHvK//dzbnatu+GHZe/Dfoym/S93JIai7RQylNxf1A1e5wmpqs0N7UovsFMfI+n5kis4FTMI9fv1Gal61OZoaxMNuV0AAAAoC8kGIjI0fUHD9L1hqYOHIy4/fbb5XTQtMCwEgWrkTG3cNdHksyXxbacUbDjNNcN0A/H0zIP+eK65+5kNzcSEzt+ul5+bjEkkWaSx16yPu+qtLJmXqqxuEC1vPcZAckdX73ZfGu/y7m6lmdnGad/f2uZjTLRKiIRPaS6SniCQa1gGZ8T5VG3e4XpEYbh63dqc9J1zsnm9gokzs3jhCc2AgAA9JczZ854pqSkP1glAMAWkM/nqTp32NDCoEFrK54O98lqrNFKtf2O9fjsbPPxio3FKZqjIq37Ax/jS4k9YQEiZGbpuB4E0ib9M3ACVGrSZ1iu38LjL9hX7JNL18QZC8K7vL87SW+DngAAABAtycCD31AEIpwmzBXP3RV5p6axSGPu3RZDE+S2Zsqe2zvclNrX1Fpuz92OczdnpqLf1WktL5tJF7TBw4JuHXnyKCbPndfwNFyeJtli/bBHsIfly3s8fOnwXWHfPNt9dD4fd2MW+xQnrdDj14GQ7dnubzB3391R5lvnZNix9x4/h8yLu7zIY8XYHcd8jG33w5uuxecmBO9H8L7rOkkzjvDvfHseFyyPlTQ5T8V8qb2FQeWwDALMT6q/FdPn2pFMjkapSvXAL36FDs9VaXq+FZgAAAAAAAiTZhCCDU2LiOrcAtGyc2dlvZinUkFUGqb4LX5vXVYQ9OeVc4XE20xZLFMrxK5clgoyEbmNstbPVt5dKk9zO3Fa5+0H3DpqrNVpkgcTc/MgqixZXx6C0mBcmZGPbJPri2m+TgVR6QgSlC95PFYmW9spj9JcVlUWuXJeqDmDnsl5To3Kdh9NAvcpZlo2xy+OsO11s7+62sIq5WQazh3A0GNvYPuZd3tumoSdizb74d93G2FpxmH7ndfzOB/rWO2kPZPit2fBm7/Kaonyk3vE3LSM0371m2cMbFRWqaQNPAgAAAAAEMe2bduaU1KGp2vG9HyzCWpmdl4Uu/kt9w5ghmbnxTs1t8803yEkUdnVK0NimeUi5UurgRVAk3xxuZnu+H6xfttj0MJlZpe0prP+fDqC06jQKg8itqzd6RxfEpU19dqaOh6e7ez33d3VHqk2Pmvd3DdI+HGzT8vm+MWR1Paqc1ntzrsvqDC5X0vD5tjr7D/zbs9Nk7Bz0Wo/PPtuJ+5+mI99jO98B3l0yd+e6go1h4po8EB/0zTf6QYtZWaP08Z6kUjteyItLQAAAAAAQnQzbsTQBCLyOf/9xjy1veWSdwgNzyqXTZx9jzGLMNq2kXjrM75T26w4cTNwn8A05CPW2vdjZ847KF4keTyqvsHIstS8yZ7ZQ5PcokS830VjA4/AfeograjjF1cS2/MOmOi9++/Z96hj7xfjM0/i3PQL3KblfrSvHy3ufhiPfYzvfCd5bHGeQOAOWtnTxxG6ffnL004wJqkvKwAAAABsKXpwwaYVRCfBCAxWuamcvuje5uwxmjOcqIuqX1KmvaPpq8lpiZ5xBhVbL1KNu7wE9O9PRpy0ujx+bZLenq2wY++T6GeetBj7McS41QbJQSt5kErq/eMIx5fk9ydfWnDG09iZo3wCQSgAAAAA2HrSGitiawYiggrmAXebm5KuBMr0ROXteKs5e6NeU68sBOzHiXrMXNpWVOQd13XZ3H4h7abfNml1e/z8kt6ejbiVxKQ+86TF3Y9eC8pf1He+E6pVz+oMD1I5SXuS3LYtfQBLmZ8qzR1GCwkAAAAAiJbkWBBBtmYgQlRy53nQO89Aeg1anOJO5PtVM+qdlPMU3is000kz/ch++VrlqLFIUyEDTbZx90MfvK8yQ1bZ1PMVdDxm1HbFNv2tvD3N1xMYe6ApdlpdHD8ji+0lub9Rx97PrVR28pn7beZ+9JrVdz5ErGPljC1SKjmDVCYTh+DWOgFPDOEBXn1fmsbiArUGqORWRmWaLhXanypj+L4BAAAAAOjSaBWxZbtm8JMD1os1ORaB2599ZXKdjjcHldMK73L+Kk1wc2c114oarE+mYSrti8rRshxfTuWBHw4QsyvA+JJ6soO7H6sT8qkhoQz54uNRnlbvyUkcj5yqRO3MqW4S6n1xnJrN7aP2Ma44aSVw/Dxstpf0/gqhx74Nn5cdfOZ+m74fvRf9nQ/QybEan6Bp8V9ig1SGtdzg1g/N3ylncp4Ooo9NMk5L3MJIP294WshRr3uOAAAAAMDm4+CCO5n4W0UkHYwYqb/6xsaXvvgZ+Uf24gtp79698nU/O3r06EDkE6BX+JGeCzmLSjUMpsqMDDh1+shY2Fy4ZkEcOF8A0oPvF0CLG1gI64YRFqTwz3vkkUfkv7t375b/RsFglQCDTnbNSP8RkbB5eKySaaefBQAAAABA4kxBh6AghX/ZTsaUQCACYMBw6we9Gf5IgXzN8GHYZGaPb7mnjwAAAABAejh44AYQ3MAC/2sKMoQFGjoJQjAEIgAGDI914H1EJoIQAAAAAACQjKDWEXpQQn/dCQQiAAAAAAAAALYoU0DBFIxwdROAcCEQAQAAAAAAALCFmVo4mLpqJAWBCAAAAAAAAACI3TqiU22P7wQAAAAAAACArWvHjh3qVcvJkyfVq2C2j+/0BCJ+7eab5L8AAAAAAAAAMLx++MMfqleOt771repVi38ZZlouLnTNAAAAAAAAANhCTAEG26CDabm4EIgAAAAAAAAAABlk8Aca/MEItIgAAAAAAAAAgESZghFJBCBcCEQAAAAAAAAAbEFugMEUZLDtqhEXbxeBCAAAAAAAAIAtzhSQMHXV6Ia7LQQiAAAAAAAAAECybR3RDQQiAAAAAAAAALYIPagQFGBIoguGibtdBCIAAAAAAAAAhhwHHeK0bDB11eiGnjYCEQAAAAAAAABbVFRwIomAhJuG+y8CEQAAAAAAAABDLCrYEDU/aQhEAAAAAAAAAGwRbgsHfysHDkakFZDwpkX0/wd+oi44/t2t3AAAAABJRU5ErkJggg==;" vertex="1" parent="1">
          <mxGeometry x="54.74" y="295" width="730.52" height="290" as="geometry" />
        </mxCell>
        <mxCell id="62kK2Ir83u4KpnULeIx9-4" value="&lt;h1 style=&quot;&quot;&gt;&lt;span style=&quot;background-color: initial;&quot;&gt;1.0 The Driver Task Analysis Diagram:&lt;/span&gt;&lt;/h1&gt;&lt;p style=&quot;&quot;&gt;&lt;span style=&quot;background-color: initial; font-size: 12px; font-weight: normal;&quot;&gt;The following task diagram is a high level setup of the driver mount setup. Block diagrams and activity diagrams from MBSE will describe flow. The task diagram for the driver will give a higher level driver approach and coordinate requirements and understand drivers tasks.&amp;nbsp;&lt;/span&gt;&lt;/p&gt;" style="text;html=1;spacing=5;spacingTop=-20;whiteSpace=wrap;overflow=hidden;rounded=0;" vertex="1" parent="1">
          <mxGeometry x="65.26" y="620" width="720" height="150" as="geometry" />
        </mxCell>
        <mxCell id="62kK2Ir83u4KpnULeIx9-6" value="Driver uses driver interface in a new electric tractor eM2" style="rounded=0;whiteSpace=wrap;html=1;" vertex="1" parent="1">
          <mxGeometry x="354" y="820" width="120" height="60" as="geometry" />
        </mxCell>
        <mxCell id="62kK2Ir83u4KpnULeIx9-7" value="1.0 Driver must be able to use interface" style="rounded=0;whiteSpace=wrap;html=1;" vertex="1" parent="1">
          <mxGeometry x="100" y="920" width="120" height="60" as="geometry" />
        </mxCell>
        <mxCell id="62kK2Ir83u4KpnULeIx9-8" value="1.1 Driver must be able to login to interface" style="rounded=0;whiteSpace=wrap;html=1;" vertex="1" parent="1">
          <mxGeometry x="160" y="1000" width="120" height="60" as="geometry" />
        </mxCell>
        <mxCell id="62kK2Ir83u4KpnULeIx9-9" value="1.3 Driver must be able to receive work assignment from interface" style="rounded=0;whiteSpace=wrap;html=1;" vertex="1" parent="1">
          <mxGeometry x="160" y="1160" width="120" height="60" as="geometry" />
        </mxCell>
        <mxCell id="62kK2Ir83u4KpnULeIx9-10" value="1.2 Driver must be able to clock in and clock out from interface" style="rounded=0;whiteSpace=wrap;html=1;" vertex="1" parent="1">
          <mxGeometry x="160" y="1080" width="120" height="60" as="geometry" />
        </mxCell>
        <mxCell id="62kK2Ir83u4KpnULeIx9-11" value="1.4 Driver must be able to depart and arrive from user interface" style="rounded=0;whiteSpace=wrap;html=1;" vertex="1" parent="1">
          <mxGeometry x="160" y="1240" width="120" height="60" as="geometry" />
        </mxCell>
        <mxCell id="62kK2Ir83u4KpnULeIx9-12" value="2.0 The interface usable from the driver seat location" style="rounded=0;whiteSpace=wrap;html=1;" vertex="1" parent="1">
          <mxGeometry x="310" y="920" width="120" height="60" as="geometry" />
        </mxCell>
        <mxCell id="62kK2Ir83u4KpnULeIx9-13" value="1.5 Driver must be able to navigate from the present location to the assigned location" style="rounded=0;whiteSpace=wrap;html=1;" vertex="1" parent="1">
          <mxGeometry x="160" y="1320" width="120" height="80" as="geometry" />
        </mxCell>
        <mxCell id="62kK2Ir83u4KpnULeIx9-14" value="3.0 The interface must be usable in the tractor environment" style="rounded=0;whiteSpace=wrap;html=1;" vertex="1" parent="1">
          <mxGeometry x="500" y="920" width="120" height="60" as="geometry" />
        </mxCell>
        <mxCell id="62kK2Ir83u4KpnULeIx9-15" value="2.1 The driver interface must be readable&amp;nbsp;" style="rounded=0;whiteSpace=wrap;html=1;" vertex="1" parent="1">
          <mxGeometry x="355" y="1000" width="120" height="60" as="geometry" />
        </mxCell>
        <mxCell id="62kK2Ir83u4KpnULeIx9-16" value="2.2 The driver interface must be reachable&amp;nbsp;" style="rounded=0;whiteSpace=wrap;html=1;" vertex="1" parent="1">
          <mxGeometry x="355.26" y="1090" width="120" height="60" as="geometry" />
        </mxCell>
        <mxCell id="62kK2Ir83u4KpnULeIx9-17" value="2.3 The driver interface must not interfere with HVAC controls" style="rounded=0;whiteSpace=wrap;html=1;" vertex="1" parent="1">
          <mxGeometry x="354" y="1169" width="120" height="60" as="geometry" />
        </mxCell>
        <mxCell id="62kK2Ir83u4KpnULeIx9-18" value="2.4 The driver interface must not limit access to electric shut off" style="rounded=0;whiteSpace=wrap;html=1;" vertex="1" parent="1">
          <mxGeometry x="355.26" y="1260" width="120" height="60" as="geometry" />
        </mxCell>
        <mxCell id="62kK2Ir83u4KpnULeIx9-20" value="2.5 The driver must have easy adjustability of interface for optimal viewing" style="rounded=0;whiteSpace=wrap;html=1;" vertex="1" parent="1">
          <mxGeometry x="355" y="1340" width="115" height="80" as="geometry" />
        </mxCell>
        <mxCell id="62kK2Ir83u4KpnULeIx9-22" value="3.1 The interface must not limit use of the truck (parking break interference)" style="rounded=0;whiteSpace=wrap;html=1;" vertex="1" parent="1">
          <mxGeometry x="550" y="1000" width="120" height="60" as="geometry" />
        </mxCell>
        <mxCell id="62kK2Ir83u4KpnULeIx9-23" value="3.2 The interface must not vibrate as the driver must drive" style="rounded=0;whiteSpace=wrap;html=1;" vertex="1" parent="1">
          <mxGeometry x="550" y="1090" width="120" height="60" as="geometry" />
        </mxCell>
        <mxCell id="62kK2Ir83u4KpnULeIx9-24" value="3.3 The interface must not make distracting noises as the driver must listen" style="rounded=0;whiteSpace=wrap;html=1;" vertex="1" parent="1">
          <mxGeometry x="550" y="1169" width="120" height="60" as="geometry" />
        </mxCell>
        <mxCell id="62kK2Ir83u4KpnULeIx9-25" value="3.4 The interface mount must not catch or injure the driver must adjust settings inside the cab" style="rounded=0;whiteSpace=wrap;html=1;" vertex="1" parent="1">
          <mxGeometry x="550" y="1240" width="120" height="80" as="geometry" />
        </mxCell>
        <mxCell id="62kK2Ir83u4KpnULeIx9-26" value="3.5 The interface must not cause glare or fatigue the driver at night or distract the driving activity" style="rounded=0;whiteSpace=wrap;html=1;" vertex="1" parent="1">
          <mxGeometry x="550" y="1340" width="120" height="80" as="geometry" />
        </mxCell>
        <mxCell id="62kK2Ir83u4KpnULeIx9-27" value="" style="endArrow=classic;html=1;rounded=0;exitX=0.5;exitY=1;exitDx=0;exitDy=0;entryX=0.5;entryY=0;entryDx=0;entryDy=0;" edge="1" parent="1" source="62kK2Ir83u4KpnULeIx9-6" target="62kK2Ir83u4KpnULeIx9-7">
          <mxGeometry width="50" height="50" relative="1" as="geometry">
            <mxPoint x="230" y="1000" as="sourcePoint" />
            <mxPoint x="280" y="950" as="targetPoint" />
            <Array as="points">
              <mxPoint x="200" y="880" />
            </Array>
          </mxGeometry>
        </mxCell>
        <mxCell id="62kK2Ir83u4KpnULeIx9-28" value="" style="endArrow=classic;html=1;rounded=0;exitX=0.5;exitY=1;exitDx=0;exitDy=0;entryX=0.5;entryY=0;entryDx=0;entryDy=0;" edge="1" parent="1" source="62kK2Ir83u4KpnULeIx9-6" target="62kK2Ir83u4KpnULeIx9-12">
          <mxGeometry width="50" height="50" relative="1" as="geometry">
            <mxPoint x="230" y="1000" as="sourcePoint" />
            <mxPoint x="280" y="950" as="targetPoint" />
          </mxGeometry>
        </mxCell>
        <mxCell id="62kK2Ir83u4KpnULeIx9-30" value="" style="endArrow=classic;html=1;rounded=0;exitX=0.5;exitY=1;exitDx=0;exitDy=0;entryX=0.5;entryY=0;entryDx=0;entryDy=0;" edge="1" parent="1" source="62kK2Ir83u4KpnULeIx9-6" target="62kK2Ir83u4KpnULeIx9-14">
          <mxGeometry width="50" height="50" relative="1" as="geometry">
            <mxPoint x="230" y="1000" as="sourcePoint" />
            <mxPoint x="280" y="950" as="targetPoint" />
            <Array as="points">
              <mxPoint x="580" y="880" />
            </Array>
          </mxGeometry>
        </mxCell>
        <mxCell id="62kK2Ir83u4KpnULeIx9-31" value="" style="endArrow=classic;html=1;rounded=0;exitX=0.25;exitY=1;exitDx=0;exitDy=0;entryX=0;entryY=0.5;entryDx=0;entryDy=0;" edge="1" parent="1" source="62kK2Ir83u4KpnULeIx9-7" target="62kK2Ir83u4KpnULeIx9-8">
          <mxGeometry width="50" height="50" relative="1" as="geometry">
            <mxPoint x="230" y="1000" as="sourcePoint" />
            <mxPoint x="280" y="950" as="targetPoint" />
          </mxGeometry>
        </mxCell>
        <mxCell id="62kK2Ir83u4KpnULeIx9-32" value="" style="endArrow=classic;html=1;rounded=0;exitX=0.25;exitY=1;exitDx=0;exitDy=0;entryX=0;entryY=0.5;entryDx=0;entryDy=0;" edge="1" parent="1" source="62kK2Ir83u4KpnULeIx9-7" target="62kK2Ir83u4KpnULeIx9-10">
          <mxGeometry width="50" height="50" relative="1" as="geometry">
            <mxPoint x="230" y="1000" as="sourcePoint" />
            <mxPoint x="280" y="950" as="targetPoint" />
          </mxGeometry>
        </mxCell>
        <mxCell id="62kK2Ir83u4KpnULeIx9-33" value="" style="endArrow=classic;html=1;rounded=0;exitX=0.25;exitY=1;exitDx=0;exitDy=0;entryX=0;entryY=0.5;entryDx=0;entryDy=0;" edge="1" parent="1" source="62kK2Ir83u4KpnULeIx9-7" target="62kK2Ir83u4KpnULeIx9-9">
          <mxGeometry width="50" height="50" relative="1" as="geometry">
            <mxPoint x="230" y="1000" as="sourcePoint" />
            <mxPoint x="280" y="950" as="targetPoint" />
          </mxGeometry>
        </mxCell>
        <mxCell id="62kK2Ir83u4KpnULeIx9-34" value="" style="endArrow=classic;html=1;rounded=0;exitX=0.25;exitY=1;exitDx=0;exitDy=0;entryX=0;entryY=0.5;entryDx=0;entryDy=0;" edge="1" parent="1" source="62kK2Ir83u4KpnULeIx9-7" target="62kK2Ir83u4KpnULeIx9-11">
          <mxGeometry width="50" height="50" relative="1" as="geometry">
            <mxPoint x="230" y="1180" as="sourcePoint" />
            <mxPoint x="280" y="1130" as="targetPoint" />
          </mxGeometry>
        </mxCell>
        <mxCell id="62kK2Ir83u4KpnULeIx9-35" value="" style="endArrow=classic;html=1;rounded=0;exitX=0.25;exitY=1;exitDx=0;exitDy=0;entryX=0;entryY=0.5;entryDx=0;entryDy=0;" edge="1" parent="1" source="62kK2Ir83u4KpnULeIx9-7" target="62kK2Ir83u4KpnULeIx9-13">
          <mxGeometry width="50" height="50" relative="1" as="geometry">
            <mxPoint x="230" y="1180" as="sourcePoint" />
            <mxPoint x="280" y="1130" as="targetPoint" />
          </mxGeometry>
        </mxCell>
        <mxCell id="62kK2Ir83u4KpnULeIx9-36" value="" style="endArrow=classic;html=1;rounded=0;exitX=0.167;exitY=1;exitDx=0;exitDy=0;exitPerimeter=0;entryX=0;entryY=0.5;entryDx=0;entryDy=0;" edge="1" parent="1" source="62kK2Ir83u4KpnULeIx9-12" target="62kK2Ir83u4KpnULeIx9-15">
          <mxGeometry width="50" height="50" relative="1" as="geometry">
            <mxPoint x="230" y="1180" as="sourcePoint" />
            <mxPoint x="280" y="1130" as="targetPoint" />
          </mxGeometry>
        </mxCell>
        <mxCell id="62kK2Ir83u4KpnULeIx9-37" value="" style="endArrow=classic;html=1;rounded=0;exitX=0.153;exitY=1.02;exitDx=0;exitDy=0;exitPerimeter=0;entryX=0;entryY=0.5;entryDx=0;entryDy=0;" edge="1" parent="1" source="62kK2Ir83u4KpnULeIx9-12" target="62kK2Ir83u4KpnULeIx9-16">
          <mxGeometry width="50" height="50" relative="1" as="geometry">
            <mxPoint x="230" y="1180" as="sourcePoint" />
            <mxPoint x="280" y="1130" as="targetPoint" />
          </mxGeometry>
        </mxCell>
        <mxCell id="62kK2Ir83u4KpnULeIx9-38" value="" style="endArrow=classic;html=1;rounded=0;exitX=0.173;exitY=0.98;exitDx=0;exitDy=0;exitPerimeter=0;entryX=0;entryY=0.5;entryDx=0;entryDy=0;" edge="1" parent="1" source="62kK2Ir83u4KpnULeIx9-12" target="62kK2Ir83u4KpnULeIx9-17">
          <mxGeometry width="50" height="50" relative="1" as="geometry">
            <mxPoint x="230" y="1180" as="sourcePoint" />
            <mxPoint x="280" y="1130" as="targetPoint" />
          </mxGeometry>
        </mxCell>
        <mxCell id="62kK2Ir83u4KpnULeIx9-39" value="" style="endArrow=classic;html=1;rounded=0;exitX=0.173;exitY=0.98;exitDx=0;exitDy=0;exitPerimeter=0;entryX=0;entryY=0.5;entryDx=0;entryDy=0;" edge="1" parent="1" source="62kK2Ir83u4KpnULeIx9-12" target="62kK2Ir83u4KpnULeIx9-18">
          <mxGeometry width="50" height="50" relative="1" as="geometry">
            <mxPoint x="230" y="1180" as="sourcePoint" />
            <mxPoint x="280" y="1130" as="targetPoint" />
          </mxGeometry>
        </mxCell>
        <mxCell id="62kK2Ir83u4KpnULeIx9-40" value="" style="endArrow=classic;html=1;rounded=0;exitX=0.167;exitY=1;exitDx=0;exitDy=0;exitPerimeter=0;entryX=0;entryY=0.25;entryDx=0;entryDy=0;" edge="1" parent="1" source="62kK2Ir83u4KpnULeIx9-12" target="62kK2Ir83u4KpnULeIx9-20">
          <mxGeometry width="50" height="50" relative="1" as="geometry">
            <mxPoint x="230" y="1180" as="sourcePoint" />
            <mxPoint x="280" y="1130" as="targetPoint" />
          </mxGeometry>
        </mxCell>
        <mxCell id="62kK2Ir83u4KpnULeIx9-41" value="" style="endArrow=classic;html=1;rounded=0;exitX=0.163;exitY=0.98;exitDx=0;exitDy=0;exitPerimeter=0;entryX=0;entryY=0.5;entryDx=0;entryDy=0;" edge="1" parent="1" source="62kK2Ir83u4KpnULeIx9-14" target="62kK2Ir83u4KpnULeIx9-22">
          <mxGeometry width="50" height="50" relative="1" as="geometry">
            <mxPoint x="230" y="1180" as="sourcePoint" />
            <mxPoint x="280" y="1130" as="targetPoint" />
          </mxGeometry>
        </mxCell>
        <mxCell id="62kK2Ir83u4KpnULeIx9-42" value="" style="endArrow=classic;html=1;rounded=0;exitX=0.153;exitY=0.967;exitDx=0;exitDy=0;exitPerimeter=0;entryX=0;entryY=0.5;entryDx=0;entryDy=0;" edge="1" parent="1" source="62kK2Ir83u4KpnULeIx9-14" target="62kK2Ir83u4KpnULeIx9-23">
          <mxGeometry width="50" height="50" relative="1" as="geometry">
            <mxPoint x="230" y="1180" as="sourcePoint" />
            <mxPoint x="280" y="1130" as="targetPoint" />
          </mxGeometry>
        </mxCell>
        <mxCell id="62kK2Ir83u4KpnULeIx9-43" value="" style="endArrow=classic;html=1;rounded=0;entryX=0;entryY=0.5;entryDx=0;entryDy=0;exitX=0.14;exitY=1.02;exitDx=0;exitDy=0;exitPerimeter=0;" edge="1" parent="1" source="62kK2Ir83u4KpnULeIx9-14" target="62kK2Ir83u4KpnULeIx9-24">
          <mxGeometry width="50" height="50" relative="1" as="geometry">
            <mxPoint x="540" y="980" as="sourcePoint" />
            <mxPoint x="280" y="1130" as="targetPoint" />
            <Array as="points" />
          </mxGeometry>
        </mxCell>
        <mxCell id="62kK2Ir83u4KpnULeIx9-44" value="" style="endArrow=classic;html=1;rounded=0;entryX=0;entryY=0.5;entryDx=0;entryDy=0;exitX=0.187;exitY=1.033;exitDx=0;exitDy=0;exitPerimeter=0;" edge="1" parent="1" source="62kK2Ir83u4KpnULeIx9-14" target="62kK2Ir83u4KpnULeIx9-25">
          <mxGeometry width="50" height="50" relative="1" as="geometry">
            <mxPoint x="540" y="980" as="sourcePoint" />
            <mxPoint x="280" y="1130" as="targetPoint" />
          </mxGeometry>
        </mxCell>
        <mxCell id="62kK2Ir83u4KpnULeIx9-46" value="" style="endArrow=classic;html=1;rounded=0;exitX=0.147;exitY=1.047;exitDx=0;exitDy=0;exitPerimeter=0;entryX=0;entryY=0.5;entryDx=0;entryDy=0;" edge="1" parent="1" source="62kK2Ir83u4KpnULeIx9-14" target="62kK2Ir83u4KpnULeIx9-26">
          <mxGeometry width="50" height="50" relative="1" as="geometry">
            <mxPoint x="210" y="1180" as="sourcePoint" />
            <mxPoint x="260" y="1130" as="targetPoint" />
          </mxGeometry>
        </mxCell>
        <mxCell id="62kK2Ir83u4KpnULeIx9-48" value="&lt;h1&gt;2.b. The Requirements from the Task Analysis Diagram&lt;/h1&gt;&lt;p&gt;Table 1: Requirement Considerations. *After Mock-up **After Second Mock-up&lt;br/&gt;Requirements Description (Refactored)&lt;br/&gt;1 The tablet must be easily accessible from the driver seat&lt;br/&gt;2 The tablet must not restrict the accessibility of the tractor’s HVAC controls &lt;br/&gt;3 The tablet must not restrict the accessibility of the parking brake controls&lt;br/&gt;4 The tablet may have limited interference with the emergency high voltage &lt;br/&gt;disconnect&lt;br/&gt;5 The tablet must have limited adjustability to limit glare and eye fatigue while driving&lt;br/&gt;6 The tablet must have limited adjustability for driver height and seat position&lt;br/&gt;7* The mount must have minimal vibration&lt;br/&gt;8* The mount must have a smooth edge for driver hand interaction&lt;br/&gt;9* The Zirkona mount must have easily accessible adjustment handle (The driver may &lt;br/&gt;wrench on the mount with a high amount of force if it’s not apparent how the &lt;br/&gt;tightening mechanism works). &lt;br/&gt;10* The kit must include the eM2 mount and the Zirkona motion attachment. &lt;br/&gt;3&lt;br/&gt;11** Must stabilize mount with a rubber wedge to further reduce vibration&lt;br/&gt;12** Installation requires extra threads facing up, toward tablet, to minimize driver hand &lt;br/&gt;interference&lt;/p&gt;" style="text;html=1;spacing=5;spacingTop=-20;whiteSpace=wrap;overflow=hidden;rounded=0;" vertex="1" parent="1">
          <mxGeometry x="90" y="1460" width="660" height="330" as="geometry" />
        </mxCell>
      </root>
    </mxGraphModel>
  </diagram>
</mxfile>
